<svg xmlns="http://www.w3.org/2000/svg" xmlns:xlink="http://www.w3.org/1999/xlink" width="500" zoomAndPan="magnify" viewBox="0 0 375 374.999991" height="500" preserveAspectRatio="xMidYMid meet" version="1.0"><defs><g/><clipPath id="118b68ef99"><path d="M 114 197 L 142 197 L 142 276 L 114 276 Z M 114 197 " clip-rule="nonzero"/></clipPath><clipPath id="90a06e866b"><path d="M 123.789062 197.503906 L 141.75 199.609375 L 132.8125 275.828125 L 114.851562 273.722656 Z M 123.789062 197.503906 " clip-rule="nonzero"/></clipPath><clipPath id="5fe760d0c8"><path d="M 140.367188 179.769531 L 160.761719 179.769531 L 160.761719 200.164062 L 140.367188 200.164062 Z M 140.367188 179.769531 " clip-rule="nonzero"/></clipPath><clipPath id="aaba8ff03e"><path d="M 150.566406 179.769531 C 144.933594 179.769531 140.367188 184.335938 140.367188 189.964844 C 140.367188 195.597656 144.933594 200.164062 150.566406 200.164062 C 156.195312 200.164062 160.761719 195.597656 160.761719 189.964844 C 160.761719 184.335938 156.195312 179.769531 150.566406 179.769531 Z M 150.566406 179.769531 " clip-rule="nonzero"/></clipPath></defs><g clip-path="url(#118b68ef99)"><g clip-path="url(#90a06e866b)"><path fill="#100f0f" d="M 123.789062 197.503906 L 141.75 199.609375 L 132.816406 275.796875 L 114.855469 273.691406 Z M 123.789062 197.503906 " fill-opacity="1" fill-rule="nonzero"/></g></g><g fill="#100f0f" fill-opacity="1"><g transform="translate(37.460663, 176.478809)"><g><path d="M 4.09375 0 L 4.09375 -92.671875 L 32.359375 -92.671875 L 40.140625 -36.140625 L 47.90625 -92.671875 L 76.390625 -92.671875 L 76.390625 0 L 59.453125 0 L 59.453125 -66.78125 L 48.765625 0 L 32.15625 0 L 20.828125 -66.78125 L 20.828125 0 Z M 4.09375 0 "/></g></g></g><g fill="#100f0f" fill-opacity="1"><g transform="translate(112.010353, 176.478809)"><g><path d="M 26.21875 0.859375 C 18.738281 0.859375 13.054688 -1.421875 9.171875 -5.984375 C 5.285156 -10.554688 3.34375 -16.976562 3.34375 -25.25 L 3.34375 -69.375 C 3.34375 -77.351562 5.285156 -83.375 9.171875 -87.4375 C 13.054688 -91.507812 18.738281 -93.546875 26.21875 -93.546875 C 33.695312 -93.546875 39.378906 -91.507812 43.265625 -87.4375 C 47.148438 -83.375 49.09375 -77.351562 49.09375 -69.375 L 49.09375 -25.25 C 49.09375 -16.90625 47.148438 -10.46875 43.265625 -5.9375 C 39.378906 -1.40625 33.695312 0.859375 26.21875 0.859375 Z M 26.21875 -16.1875 C 27.875 -16.1875 28.988281 -16.90625 29.5625 -18.34375 C 30.132812 -19.78125 30.421875 -21.796875 30.421875 -24.390625 L 30.421875 -69.703125 C 30.421875 -71.710938 30.148438 -73.347656 29.609375 -74.609375 C 29.078125 -75.867188 27.984375 -76.5 26.328125 -76.5 C 23.234375 -76.5 21.6875 -74.160156 21.6875 -69.484375 L 21.6875 -24.28125 C 21.6875 -21.613281 22.007812 -19.597656 22.65625 -18.234375 C 23.300781 -16.867188 24.488281 -16.1875 26.21875 -16.1875 Z M 26.21875 -16.1875 "/></g></g></g><g fill="#100f0f" fill-opacity="1"><g transform="translate(158.509219, 176.478809)"><g><path d="M 4.09375 0 L 4.09375 -92.671875 L 23.203125 -92.671875 L 31.71875 -48.328125 L 31.71875 -92.671875 L 49.625 -92.671875 L 49.625 0 L 31.5 0 L 22.21875 -46.390625 L 22.21875 0 Z M 4.09375 0 "/></g></g></g><g fill="#100f0f" fill-opacity="1"><g transform="translate(206.302747, 176.478809)"><g><path d="M 4.09375 0 L 4.09375 -92.671875 L 41.21875 -92.671875 L 41.21875 -74.765625 L 22.984375 -74.765625 L 22.984375 -56.75 L 40.453125 -56.75 L 40.453125 -39.265625 L 22.984375 -39.265625 L 22.984375 -18.015625 L 42.40625 -18.015625 L 42.40625 0 Z M 4.09375 0 "/></g></g></g><g fill="#100f0f" fill-opacity="1"><g transform="translate(244.81792, 176.478809)"><g><path d="M 15.328125 0 L 15.328125 -30.53125 L 0.546875 -92.671875 L 18.875 -92.671875 L 24.0625 -61.28125 L 29.234375 -92.671875 L 47.578125 -92.671875 L 32.796875 -30.53125 L 32.796875 0 Z M 15.328125 0 "/></g></g></g><g clip-path="url(#5fe760d0c8)"><g clip-path="url(#aaba8ff03e)"><path fill="#100f0f" d="M 140.367188 179.769531 L 160.761719 179.769531 L 160.761719 200.164062 L 140.367188 200.164062 Z M 140.367188 179.769531 " fill-opacity="1" fill-rule="nonzero"/></g></g><g fill="#5864ff" fill-opacity="1"><g transform="translate(39.155918, 275.10489)"><g><path d="M 4.09375 0 L 4.09375 -92.671875 L 32.359375 -92.671875 L 40.140625 -36.140625 L 47.90625 -92.671875 L 76.390625 -92.671875 L 76.390625 0 L 59.453125 0 L 59.453125 -66.78125 L 48.765625 0 L 32.15625 0 L 20.828125 -66.78125 L 20.828125 0 Z M 4.09375 0 "/></g></g></g><g fill="#5864ff" fill-opacity="1"><g transform="translate(191.737793, 253.645707)"><g><path d="M 80.34375 -46.359375 L 94.09375 -24.796875 C 97.644531 -19.210938 98.765625 -14.039062 97.453125 -9.28125 C 96.140625 -4.53125 92.472656 -0.191406 86.453125 3.734375 L 50 27.234375 C 42.332031 32.210938 35.6875 34.570312 30.0625 34.3125 C 24.445312 34.0625 19.625 30.78125 15.59375 24.46875 L 2.203125 3.453125 Z M 27.8125 13.109375 C 29.625 15.960938 31.925781 16.5 34.71875 14.71875 L 75.015625 -10.96875 C 76.773438 -12.09375 78.003906 -13.070312 78.703125 -13.90625 C 79.410156 -14.75 79.6875 -15.628906 79.53125 -16.546875 C 79.375 -17.460938 78.8125 -18.679688 77.84375 -20.203125 L 76.734375 -21.921875 L 26.0625 10.390625 Z M 27.8125 13.109375 "/></g></g></g><g fill="#5864ff" fill-opacity="1"><g transform="translate(135.229175, 266.46197)"><g><path d="M 3.921875 1.203125 L 31.046875 -87.40625 L 49.3125 -81.8125 L 44.46875 -36.9375 L 57.453125 -79.328125 L 74.578125 -74.078125 L 47.453125 14.53125 L 30.125 9.21875 L 34.828125 -37.859375 L 21.25 6.5 Z M 3.921875 1.203125 "/></g></g></g><g fill="#100f0f" fill-opacity="1"><g transform="translate(288.264232, 186.663524)"><g><path d="M 2.390625 0 C 2.242188 0 2.125 -0.0390625 2.03125 -0.125 C 1.945312 -0.21875 1.90625 -0.332031 1.90625 -0.46875 L 1.90625 -4.90625 L 2.890625 -4.90625 L 2.890625 -0.46875 C 2.890625 -0.332031 2.84375 -0.21875 2.75 -0.125 C 2.65625 -0.0390625 2.535156 0 2.390625 0 Z M 0.703125 -4.484375 C 0.566406 -4.484375 0.453125 -4.519531 0.359375 -4.59375 C 0.273438 -4.675781 0.234375 -4.785156 0.234375 -4.921875 C 0.234375 -5.054688 0.273438 -5.160156 0.359375 -5.234375 C 0.453125 -5.316406 0.566406 -5.359375 0.703125 -5.359375 L 4.09375 -5.359375 C 4.226562 -5.359375 4.335938 -5.316406 4.421875 -5.234375 C 4.515625 -5.148438 4.5625 -5.046875 4.5625 -4.921875 C 4.5625 -4.785156 4.515625 -4.675781 4.421875 -4.59375 C 4.335938 -4.519531 4.226562 -4.484375 4.09375 -4.484375 Z M 0.703125 -4.484375 "/></g></g></g><g fill="#100f0f" fill-opacity="1"><g transform="translate(292.86788, 186.663524)"><g><path d="M 1.046875 -5.359375 L 3.609375 -5.359375 C 3.742188 -5.359375 3.851562 -5.316406 3.9375 -5.234375 C 4.03125 -5.148438 4.078125 -5.039062 4.078125 -4.90625 C 4.078125 -4.78125 4.03125 -4.675781 3.9375 -4.59375 C 3.851562 -4.519531 3.742188 -4.484375 3.609375 -4.484375 L 1.46875 -4.484375 L 1.53125 -4.609375 L 1.53125 -3.109375 L 1.46875 -3.171875 L 3.265625 -3.171875 C 3.390625 -3.171875 3.5 -3.128906 3.59375 -3.046875 C 3.6875 -2.960938 3.734375 -2.851562 3.734375 -2.71875 C 3.734375 -2.59375 3.6875 -2.488281 3.59375 -2.40625 C 3.5 -2.332031 3.390625 -2.296875 3.265625 -2.296875 L 1.5 -2.296875 L 1.53125 -2.359375 L 1.53125 -0.8125 L 1.46875 -0.875 L 3.609375 -0.875 C 3.742188 -0.875 3.851562 -0.828125 3.9375 -0.734375 C 4.03125 -0.648438 4.078125 -0.550781 4.078125 -0.4375 C 4.078125 -0.3125 4.03125 -0.207031 3.9375 -0.125 C 3.851562 -0.0390625 3.742188 0 3.609375 0 L 1.046875 0 C 0.910156 0 0.796875 -0.0390625 0.703125 -0.125 C 0.617188 -0.21875 0.578125 -0.332031 0.578125 -0.46875 L 0.578125 -4.890625 C 0.578125 -5.023438 0.617188 -5.132812 0.703125 -5.21875 C 0.796875 -5.3125 0.910156 -5.359375 1.046875 -5.359375 Z M 1.046875 -5.359375 "/></g></g></g><g fill="#100f0f" fill-opacity="1"><g transform="translate(297.057885, 186.663524)"><g><path d="M 4.328125 -5.09375 C 4.460938 -5.03125 4.539062 -4.925781 4.5625 -4.78125 C 4.582031 -4.644531 4.546875 -4.515625 4.453125 -4.390625 C 4.378906 -4.296875 4.289062 -4.242188 4.1875 -4.234375 C 4.082031 -4.222656 3.976562 -4.242188 3.875 -4.296875 C 3.75 -4.359375 3.617188 -4.40625 3.484375 -4.4375 C 3.347656 -4.46875 3.207031 -4.484375 3.0625 -4.484375 C 2.789062 -4.484375 2.546875 -4.4375 2.328125 -4.34375 C 2.109375 -4.257812 1.921875 -4.132812 1.765625 -3.96875 C 1.609375 -3.8125 1.488281 -3.625 1.40625 -3.40625 C 1.332031 -3.1875 1.296875 -2.945312 1.296875 -2.6875 C 1.296875 -2.375 1.335938 -2.101562 1.421875 -1.875 C 1.515625 -1.644531 1.640625 -1.453125 1.796875 -1.296875 C 1.960938 -1.140625 2.148438 -1.023438 2.359375 -0.953125 C 2.578125 -0.878906 2.8125 -0.84375 3.0625 -0.84375 C 3.195312 -0.84375 3.332031 -0.851562 3.46875 -0.875 C 3.613281 -0.90625 3.75 -0.953125 3.875 -1.015625 C 3.976562 -1.066406 4.082031 -1.082031 4.1875 -1.0625 C 4.289062 -1.050781 4.378906 -1 4.453125 -0.90625 C 4.554688 -0.78125 4.59375 -0.648438 4.5625 -0.515625 C 4.539062 -0.378906 4.460938 -0.28125 4.328125 -0.21875 C 4.203125 -0.15625 4.066406 -0.101562 3.921875 -0.0625 C 3.785156 -0.0195312 3.644531 0.0078125 3.5 0.03125 C 3.351562 0.0625 3.207031 0.078125 3.0625 0.078125 C 2.695312 0.078125 2.347656 0.0195312 2.015625 -0.09375 C 1.691406 -0.21875 1.398438 -0.394531 1.140625 -0.625 C 0.878906 -0.851562 0.675781 -1.140625 0.53125 -1.484375 C 0.382812 -1.828125 0.3125 -2.226562 0.3125 -2.6875 C 0.3125 -3.070312 0.378906 -3.429688 0.515625 -3.765625 C 0.648438 -4.097656 0.835938 -4.382812 1.078125 -4.625 C 1.328125 -4.863281 1.617188 -5.050781 1.953125 -5.1875 C 2.296875 -5.320312 2.664062 -5.390625 3.0625 -5.390625 C 3.289062 -5.390625 3.507812 -5.363281 3.71875 -5.3125 C 3.9375 -5.269531 4.140625 -5.195312 4.328125 -5.09375 Z M 4.328125 -5.09375 "/></g></g></g><g fill="#100f0f" fill-opacity="1"><g transform="translate(301.669188, 186.663524)"><g><path d="M 1.0625 -5.359375 C 1.1875 -5.359375 1.296875 -5.3125 1.390625 -5.21875 C 1.484375 -5.132812 1.53125 -5.023438 1.53125 -4.890625 L 1.53125 -0.46875 C 1.53125 -0.332031 1.476562 -0.21875 1.375 -0.125 C 1.28125 -0.0390625 1.171875 0 1.046875 0 C 0.898438 0 0.785156 -0.0390625 0.703125 -0.125 C 0.617188 -0.21875 0.578125 -0.332031 0.578125 -0.46875 L 0.578125 -4.890625 C 0.578125 -5.023438 0.617188 -5.132812 0.703125 -5.21875 C 0.796875 -5.3125 0.914062 -5.359375 1.0625 -5.359375 Z M 4.453125 -5.359375 C 4.597656 -5.359375 4.710938 -5.3125 4.796875 -5.21875 C 4.890625 -5.132812 4.9375 -5.023438 4.9375 -4.890625 L 4.9375 -0.46875 C 4.9375 -0.332031 4.890625 -0.21875 4.796875 -0.125 C 4.703125 -0.0390625 4.582031 0 4.4375 0 C 4.3125 0 4.203125 -0.0390625 4.109375 -0.125 C 4.015625 -0.21875 3.96875 -0.332031 3.96875 -0.46875 L 3.96875 -4.890625 C 3.96875 -5.023438 4.015625 -5.132812 4.109375 -5.21875 C 4.210938 -5.3125 4.328125 -5.359375 4.453125 -5.359375 Z M 1.046875 -3.125 L 4.453125 -3.125 L 4.453125 -2.25 L 1.046875 -2.25 Z M 1.046875 -3.125 "/></g></g></g><g fill="#100f0f" fill-opacity="1"><g transform="translate(306.985217, 186.663524)"><g><path d="M 4.640625 -5.359375 C 4.765625 -5.359375 4.863281 -5.316406 4.9375 -5.234375 C 5.007812 -5.148438 5.046875 -5.050781 5.046875 -4.9375 L 5.046875 -0.46875 C 5.046875 -0.332031 5 -0.21875 4.90625 -0.125 C 4.820312 -0.0390625 4.71875 0 4.59375 0 C 4.519531 0 4.445312 -0.0078125 4.375 -0.03125 C 4.3125 -0.0507812 4.257812 -0.0820312 4.21875 -0.125 L 1.21875 -3.953125 L 1.421875 -4.078125 L 1.421875 -0.421875 C 1.421875 -0.304688 1.378906 -0.207031 1.296875 -0.125 C 1.210938 -0.0390625 1.109375 0 0.984375 0 C 0.859375 0 0.757812 -0.0390625 0.6875 -0.125 C 0.613281 -0.207031 0.578125 -0.304688 0.578125 -0.421875 L 0.578125 -4.890625 C 0.578125 -5.023438 0.617188 -5.132812 0.703125 -5.21875 C 0.796875 -5.3125 0.910156 -5.359375 1.046875 -5.359375 C 1.117188 -5.359375 1.191406 -5.34375 1.265625 -5.3125 C 1.335938 -5.289062 1.394531 -5.25 1.4375 -5.1875 L 4.34375 -1.46875 L 4.21875 -1.375 L 4.21875 -4.9375 C 4.21875 -5.050781 4.253906 -5.148438 4.328125 -5.234375 C 4.410156 -5.316406 4.515625 -5.359375 4.640625 -5.359375 Z M 4.640625 -5.359375 "/></g></g></g><g fill="#100f0f" fill-opacity="1"><g transform="translate(312.423806, 186.663524)"><g><path d="M 5.5 -2.6875 C 5.5 -2.300781 5.4375 -1.941406 5.3125 -1.609375 C 5.1875 -1.273438 5.003906 -0.984375 4.765625 -0.734375 C 4.535156 -0.484375 4.257812 -0.285156 3.9375 -0.140625 C 3.625 0.00390625 3.28125 0.078125 2.90625 0.078125 C 2.519531 0.078125 2.171875 0.00390625 1.859375 -0.140625 C 1.546875 -0.285156 1.269531 -0.484375 1.03125 -0.734375 C 0.800781 -0.984375 0.625 -1.273438 0.5 -1.609375 C 0.375 -1.941406 0.3125 -2.300781 0.3125 -2.6875 C 0.3125 -3.0625 0.375 -3.414062 0.5 -3.75 C 0.625 -4.082031 0.800781 -4.375 1.03125 -4.625 C 1.269531 -4.875 1.546875 -5.070312 1.859375 -5.21875 C 2.171875 -5.363281 2.519531 -5.4375 2.90625 -5.4375 C 3.28125 -5.4375 3.625 -5.363281 3.9375 -5.21875 C 4.257812 -5.070312 4.535156 -4.875 4.765625 -4.625 C 5.003906 -4.375 5.1875 -4.082031 5.3125 -3.75 C 5.4375 -3.414062 5.5 -3.0625 5.5 -2.6875 Z M 4.515625 -2.6875 C 4.515625 -3.019531 4.441406 -3.328125 4.296875 -3.609375 C 4.160156 -3.890625 3.972656 -4.109375 3.734375 -4.265625 C 3.492188 -4.429688 3.21875 -4.515625 2.90625 -4.515625 C 2.582031 -4.515625 2.300781 -4.429688 2.0625 -4.265625 C 1.820312 -4.109375 1.632812 -3.890625 1.5 -3.609375 C 1.363281 -3.335938 1.296875 -3.03125 1.296875 -2.6875 C 1.296875 -2.34375 1.363281 -2.03125 1.5 -1.75 C 1.632812 -1.46875 1.820312 -1.242188 2.0625 -1.078125 C 2.300781 -0.921875 2.582031 -0.84375 2.90625 -0.84375 C 3.21875 -0.84375 3.492188 -0.921875 3.734375 -1.078125 C 3.972656 -1.242188 4.160156 -1.46875 4.296875 -1.75 C 4.441406 -2.03125 4.515625 -2.34375 4.515625 -2.6875 Z M 4.515625 -2.6875 "/></g></g></g><g fill="#100f0f" fill-opacity="1"><g transform="translate(318.04623, 186.663524)"><g><path d="M 3.53125 -0.890625 C 3.664062 -0.890625 3.773438 -0.847656 3.859375 -0.765625 C 3.953125 -0.679688 4 -0.570312 4 -0.4375 C 4 -0.3125 3.953125 -0.207031 3.859375 -0.125 C 3.773438 -0.0390625 3.664062 0 3.53125 0 L 1.046875 0 C 0.910156 0 0.796875 -0.0390625 0.703125 -0.125 C 0.617188 -0.21875 0.578125 -0.332031 0.578125 -0.46875 L 0.578125 -4.890625 C 0.578125 -5.023438 0.617188 -5.132812 0.703125 -5.21875 C 0.796875 -5.3125 0.914062 -5.359375 1.0625 -5.359375 C 1.1875 -5.359375 1.296875 -5.3125 1.390625 -5.21875 C 1.484375 -5.132812 1.53125 -5.023438 1.53125 -4.890625 L 1.53125 -0.765625 L 1.359375 -0.890625 Z M 3.53125 -0.890625 "/></g></g></g><g fill="#100f0f" fill-opacity="1"><g transform="translate(322.15964, 186.663524)"><g><path d="M 5.5 -2.6875 C 5.5 -2.300781 5.4375 -1.941406 5.3125 -1.609375 C 5.1875 -1.273438 5.003906 -0.984375 4.765625 -0.734375 C 4.535156 -0.484375 4.257812 -0.285156 3.9375 -0.140625 C 3.625 0.00390625 3.28125 0.078125 2.90625 0.078125 C 2.519531 0.078125 2.171875 0.00390625 1.859375 -0.140625 C 1.546875 -0.285156 1.269531 -0.484375 1.03125 -0.734375 C 0.800781 -0.984375 0.625 -1.273438 0.5 -1.609375 C 0.375 -1.941406 0.3125 -2.300781 0.3125 -2.6875 C 0.3125 -3.0625 0.375 -3.414062 0.5 -3.75 C 0.625 -4.082031 0.800781 -4.375 1.03125 -4.625 C 1.269531 -4.875 1.546875 -5.070312 1.859375 -5.21875 C 2.171875 -5.363281 2.519531 -5.4375 2.90625 -5.4375 C 3.28125 -5.4375 3.625 -5.363281 3.9375 -5.21875 C 4.257812 -5.070312 4.535156 -4.875 4.765625 -4.625 C 5.003906 -4.375 5.1875 -4.082031 5.3125 -3.75 C 5.4375 -3.414062 5.5 -3.0625 5.5 -2.6875 Z M 4.515625 -2.6875 C 4.515625 -3.019531 4.441406 -3.328125 4.296875 -3.609375 C 4.160156 -3.890625 3.972656 -4.109375 3.734375 -4.265625 C 3.492188 -4.429688 3.21875 -4.515625 2.90625 -4.515625 C 2.582031 -4.515625 2.300781 -4.429688 2.0625 -4.265625 C 1.820312 -4.109375 1.632812 -3.890625 1.5 -3.609375 C 1.363281 -3.335938 1.296875 -3.03125 1.296875 -2.6875 C 1.296875 -2.34375 1.363281 -2.03125 1.5 -1.75 C 1.632812 -1.46875 1.820312 -1.242188 2.0625 -1.078125 C 2.300781 -0.921875 2.582031 -0.84375 2.90625 -0.84375 C 3.21875 -0.84375 3.492188 -0.921875 3.734375 -1.078125 C 3.972656 -1.242188 4.160156 -1.46875 4.296875 -1.75 C 4.441406 -2.03125 4.515625 -2.34375 4.515625 -2.6875 Z M 4.515625 -2.6875 "/></g></g></g><g fill="#100f0f" fill-opacity="1"><g transform="translate(327.782063, 186.663524)"><g><path d="M 3.09375 0.078125 C 2.707031 0.078125 2.347656 0.00390625 2.015625 -0.140625 C 1.679688 -0.285156 1.382812 -0.484375 1.125 -0.734375 C 0.875 -0.984375 0.675781 -1.273438 0.53125 -1.609375 C 0.382812 -1.941406 0.3125 -2.300781 0.3125 -2.6875 C 0.3125 -3.0625 0.382812 -3.414062 0.53125 -3.75 C 0.675781 -4.082031 0.875 -4.375 1.125 -4.625 C 1.382812 -4.875 1.679688 -5.070312 2.015625 -5.21875 C 2.347656 -5.363281 2.707031 -5.4375 3.09375 -5.4375 C 3.332031 -5.4375 3.566406 -5.410156 3.796875 -5.359375 C 4.023438 -5.304688 4.234375 -5.226562 4.421875 -5.125 C 4.492188 -5.082031 4.546875 -5.023438 4.578125 -4.953125 C 4.617188 -4.890625 4.640625 -4.820312 4.640625 -4.75 C 4.640625 -4.632812 4.597656 -4.523438 4.515625 -4.421875 C 4.441406 -4.328125 4.34375 -4.28125 4.21875 -4.28125 C 4.175781 -4.28125 4.128906 -4.285156 4.078125 -4.296875 C 4.035156 -4.304688 3.992188 -4.320312 3.953125 -4.34375 C 3.828125 -4.394531 3.691406 -4.4375 3.546875 -4.46875 C 3.410156 -4.5 3.257812 -4.515625 3.09375 -4.515625 C 2.769531 -4.515625 2.46875 -4.429688 2.1875 -4.265625 C 1.914062 -4.097656 1.695312 -3.875 1.53125 -3.59375 C 1.375 -3.320312 1.296875 -3.019531 1.296875 -2.6875 C 1.296875 -2.351562 1.375 -2.046875 1.53125 -1.765625 C 1.695312 -1.484375 1.914062 -1.257812 2.1875 -1.09375 C 2.46875 -0.925781 2.769531 -0.84375 3.09375 -0.84375 C 3.25 -0.84375 3.414062 -0.859375 3.59375 -0.890625 C 3.78125 -0.921875 3.9375 -0.960938 4.0625 -1.015625 L 3.984375 -0.78125 L 3.984375 -2.09375 L 4.125 -1.96875 L 3.265625 -1.96875 C 3.128906 -1.96875 3.015625 -2.007812 2.921875 -2.09375 C 2.835938 -2.1875 2.796875 -2.300781 2.796875 -2.4375 C 2.796875 -2.570312 2.835938 -2.679688 2.921875 -2.765625 C 3.015625 -2.847656 3.128906 -2.890625 3.265625 -2.890625 L 4.53125 -2.890625 C 4.65625 -2.890625 4.757812 -2.84375 4.84375 -2.75 C 4.9375 -2.664062 4.984375 -2.554688 4.984375 -2.421875 L 4.984375 -0.796875 C 4.984375 -0.703125 4.957031 -0.617188 4.90625 -0.546875 C 4.863281 -0.484375 4.8125 -0.429688 4.75 -0.390625 C 4.507812 -0.242188 4.25 -0.128906 3.96875 -0.046875 C 3.695312 0.0351562 3.40625 0.078125 3.09375 0.078125 Z M 3.09375 0.078125 "/></g></g></g><g fill="#100f0f" fill-opacity="1"><g transform="translate(332.921914, 186.663524)"><g><path d="M 3.984375 -5.375 C 4.109375 -5.375 4.21875 -5.328125 4.3125 -5.234375 C 4.40625 -5.148438 4.453125 -5.039062 4.453125 -4.90625 C 4.453125 -4.863281 4.441406 -4.816406 4.421875 -4.765625 C 4.410156 -4.710938 4.390625 -4.664062 4.359375 -4.625 L 2.625 -2.140625 L 2.765625 -2.671875 L 2.765625 -0.46875 C 2.765625 -0.332031 2.71875 -0.21875 2.625 -0.125 C 2.539062 -0.0390625 2.4375 0 2.3125 0 C 2.1875 0 2.078125 -0.0390625 1.984375 -0.125 C 1.898438 -0.21875 1.859375 -0.332031 1.859375 -0.46875 L 1.859375 -2.609375 L 1.921875 -2.359375 L 0.265625 -4.5625 C 0.210938 -4.625 0.175781 -4.6875 0.15625 -4.75 C 0.132812 -4.8125 0.125 -4.867188 0.125 -4.921875 C 0.125 -5.054688 0.175781 -5.164062 0.28125 -5.25 C 0.394531 -5.332031 0.507812 -5.375 0.625 -5.375 C 0.757812 -5.375 0.882812 -5.304688 1 -5.171875 L 2.46875 -3.140625 L 2.25 -3.171875 L 3.609375 -5.15625 C 3.710938 -5.300781 3.835938 -5.375 3.984375 -5.375 Z M 3.984375 -5.375 "/></g></g></g><g fill="#100f0f" fill-opacity="1"><g transform="translate(43.524808, 297.480018)"><g><path d="M 2.921875 -5.625 C 3.203125 -5.625 3.460938 -5.546875 3.703125 -5.390625 C 3.953125 -5.234375 4.148438 -5.015625 4.296875 -4.734375 C 4.453125 -4.460938 4.53125 -4.160156 4.53125 -3.828125 C 4.53125 -3.492188 4.453125 -3.1875 4.296875 -2.90625 C 4.148438 -2.632812 3.953125 -2.414062 3.703125 -2.25 C 3.460938 -2.09375 3.203125 -2.015625 2.921875 -2.015625 L 1.453125 -2.015625 L 1.53125 -2.15625 L 1.53125 -0.484375 C 1.53125 -0.347656 1.484375 -0.234375 1.390625 -0.140625 C 1.304688 -0.046875 1.195312 0 1.0625 0 C 0.925781 0 0.816406 -0.046875 0.734375 -0.140625 C 0.648438 -0.234375 0.609375 -0.347656 0.609375 -0.484375 L 0.609375 -5.140625 C 0.609375 -5.273438 0.65625 -5.390625 0.75 -5.484375 C 0.84375 -5.578125 0.957031 -5.625 1.09375 -5.625 Z M 2.921875 -2.921875 C 3.023438 -2.921875 3.125 -2.960938 3.21875 -3.046875 C 3.320312 -3.140625 3.40625 -3.253906 3.46875 -3.390625 C 3.53125 -3.523438 3.5625 -3.671875 3.5625 -3.828125 C 3.5625 -3.984375 3.53125 -4.125 3.46875 -4.25 C 3.40625 -4.382812 3.320312 -4.492188 3.21875 -4.578125 C 3.125 -4.660156 3.023438 -4.703125 2.921875 -4.703125 L 1.4375 -4.703125 L 1.53125 -4.859375 L 1.53125 -2.796875 L 1.4375 -2.921875 Z M 2.921875 -2.921875 "/></g></g></g><g fill="#100f0f" fill-opacity="1"><g transform="translate(48.175338, 297.480018)"><g><path d="M 1.09375 -5.625 L 3.796875 -5.625 C 3.929688 -5.625 4.046875 -5.582031 4.140625 -5.5 C 4.234375 -5.414062 4.28125 -5.300781 4.28125 -5.15625 C 4.28125 -5.019531 4.234375 -4.910156 4.140625 -4.828125 C 4.046875 -4.742188 3.929688 -4.703125 3.796875 -4.703125 L 1.53125 -4.703125 L 1.609375 -4.84375 L 1.609375 -3.28125 L 1.546875 -3.34375 L 3.421875 -3.34375 C 3.566406 -3.34375 3.6875 -3.296875 3.78125 -3.203125 C 3.875 -3.117188 3.921875 -3.003906 3.921875 -2.859375 C 3.921875 -2.722656 3.875 -2.613281 3.78125 -2.53125 C 3.6875 -2.445312 3.566406 -2.40625 3.421875 -2.40625 L 1.5625 -2.40625 L 1.609375 -2.484375 L 1.609375 -0.859375 L 1.546875 -0.921875 L 3.796875 -0.921875 C 3.929688 -0.921875 4.046875 -0.875 4.140625 -0.78125 C 4.234375 -0.6875 4.28125 -0.578125 4.28125 -0.453125 C 4.28125 -0.316406 4.234375 -0.207031 4.140625 -0.125 C 4.046875 -0.0390625 3.929688 0 3.796875 0 L 1.09375 0 C 0.957031 0 0.84375 -0.046875 0.75 -0.140625 C 0.65625 -0.234375 0.609375 -0.347656 0.609375 -0.484375 L 0.609375 -5.140625 C 0.609375 -5.273438 0.65625 -5.390625 0.75 -5.484375 C 0.84375 -5.578125 0.957031 -5.625 1.09375 -5.625 Z M 1.09375 -5.625 "/></g></g></g><g fill="#100f0f" fill-opacity="1"><g transform="translate(52.576441, 297.480018)"><g><path d="M 1.1875 0 C 1.03125 0 0.894531 -0.046875 0.78125 -0.140625 C 0.664062 -0.234375 0.609375 -0.347656 0.609375 -0.484375 L 0.609375 -5.140625 C 0.609375 -5.273438 0.65625 -5.390625 0.75 -5.484375 C 0.84375 -5.578125 0.957031 -5.625 1.09375 -5.625 L 3.40625 -5.625 C 3.6875 -5.625 3.945312 -5.550781 4.1875 -5.40625 C 4.4375 -5.257812 4.632812 -5.054688 4.78125 -4.796875 C 4.9375 -4.535156 5.015625 -4.238281 5.015625 -3.90625 C 5.015625 -3.695312 4.972656 -3.492188 4.890625 -3.296875 C 4.804688 -3.109375 4.691406 -2.9375 4.546875 -2.78125 C 4.410156 -2.625 4.253906 -2.503906 4.078125 -2.421875 L 4.078125 -2.609375 C 4.234375 -2.523438 4.359375 -2.425781 4.453125 -2.3125 C 4.554688 -2.207031 4.632812 -2.09375 4.6875 -1.96875 C 4.738281 -1.84375 4.769531 -1.707031 4.78125 -1.5625 C 4.800781 -1.425781 4.816406 -1.304688 4.828125 -1.203125 C 4.835938 -1.097656 4.851562 -1.007812 4.875 -0.9375 C 4.90625 -0.875 4.953125 -0.820312 5.015625 -0.78125 C 5.140625 -0.71875 5.210938 -0.617188 5.234375 -0.484375 C 5.265625 -0.359375 5.238281 -0.242188 5.15625 -0.140625 C 5.09375 -0.0664062 5.015625 -0.0195312 4.921875 0 C 4.828125 0.0195312 4.734375 0.0195312 4.640625 0 C 4.554688 -0.0195312 4.484375 -0.046875 4.421875 -0.078125 C 4.328125 -0.128906 4.234375 -0.207031 4.140625 -0.3125 C 4.054688 -0.414062 3.984375 -0.554688 3.921875 -0.734375 C 3.867188 -0.910156 3.84375 -1.140625 3.84375 -1.421875 C 3.84375 -1.515625 3.828125 -1.597656 3.796875 -1.671875 C 3.765625 -1.753906 3.71875 -1.820312 3.65625 -1.875 C 3.601562 -1.9375 3.53125 -1.976562 3.4375 -2 C 3.34375 -2.03125 3.234375 -2.046875 3.109375 -2.046875 L 1.484375 -2.046875 L 1.609375 -2.234375 L 1.609375 -0.484375 C 1.609375 -0.347656 1.570312 -0.234375 1.5 -0.140625 C 1.425781 -0.046875 1.320312 0 1.1875 0 Z M 1.5 -2.875 L 3.375 -2.875 C 3.46875 -2.875 3.5625 -2.914062 3.65625 -3 C 3.75 -3.09375 3.820312 -3.21875 3.875 -3.375 C 3.9375 -3.53125 3.96875 -3.695312 3.96875 -3.875 C 3.96875 -4.113281 3.90625 -4.3125 3.78125 -4.46875 C 3.65625 -4.625 3.519531 -4.703125 3.375 -4.703125 L 1.515625 -4.703125 L 1.609375 -4.96875 L 1.609375 -2.6875 Z M 1.5 -2.875 "/></g></g></g><g fill="#100f0f" fill-opacity="1"><g transform="translate(57.902829, 297.480018)"><g><path d="M 2.40625 0.078125 C 2.03125 0.078125 1.691406 0.03125 1.390625 -0.0625 C 1.097656 -0.15625 0.816406 -0.320312 0.546875 -0.5625 C 0.472656 -0.613281 0.414062 -0.675781 0.375 -0.75 C 0.34375 -0.832031 0.328125 -0.910156 0.328125 -0.984375 C 0.328125 -1.109375 0.367188 -1.21875 0.453125 -1.3125 C 0.546875 -1.40625 0.65625 -1.453125 0.78125 -1.453125 C 0.882812 -1.453125 0.976562 -1.421875 1.0625 -1.359375 C 1.269531 -1.191406 1.472656 -1.0625 1.671875 -0.96875 C 1.867188 -0.882812 2.113281 -0.84375 2.40625 -0.84375 C 2.613281 -0.84375 2.796875 -0.875 2.953125 -0.9375 C 3.117188 -1 3.253906 -1.082031 3.359375 -1.1875 C 3.460938 -1.289062 3.515625 -1.410156 3.515625 -1.546875 C 3.515625 -1.703125 3.46875 -1.835938 3.375 -1.953125 C 3.28125 -2.066406 3.128906 -2.160156 2.921875 -2.234375 C 2.722656 -2.316406 2.472656 -2.378906 2.171875 -2.421875 C 1.878906 -2.460938 1.625 -2.523438 1.40625 -2.609375 C 1.1875 -2.703125 1.003906 -2.816406 0.859375 -2.953125 C 0.710938 -3.085938 0.597656 -3.25 0.515625 -3.4375 C 0.441406 -3.625 0.40625 -3.832031 0.40625 -4.0625 C 0.40625 -4.414062 0.492188 -4.710938 0.671875 -4.953125 C 0.859375 -5.203125 1.101562 -5.390625 1.40625 -5.515625 C 1.707031 -5.648438 2.046875 -5.71875 2.421875 -5.71875 C 2.765625 -5.71875 3.085938 -5.664062 3.390625 -5.5625 C 3.691406 -5.457031 3.9375 -5.320312 4.125 -5.15625 C 4.28125 -5.03125 4.359375 -4.890625 4.359375 -4.734375 C 4.359375 -4.609375 4.3125 -4.5 4.21875 -4.40625 C 4.125 -4.3125 4.015625 -4.265625 3.890625 -4.265625 C 3.816406 -4.265625 3.742188 -4.289062 3.671875 -4.34375 C 3.585938 -4.414062 3.472656 -4.484375 3.328125 -4.546875 C 3.179688 -4.617188 3.023438 -4.675781 2.859375 -4.71875 C 2.703125 -4.757812 2.554688 -4.78125 2.421875 -4.78125 C 2.191406 -4.78125 1.992188 -4.75 1.828125 -4.6875 C 1.671875 -4.632812 1.550781 -4.554688 1.46875 -4.453125 C 1.394531 -4.359375 1.359375 -4.242188 1.359375 -4.109375 C 1.359375 -3.941406 1.40625 -3.804688 1.5 -3.703125 C 1.59375 -3.597656 1.726562 -3.515625 1.90625 -3.453125 C 2.082031 -3.390625 2.296875 -3.335938 2.546875 -3.296875 C 2.867188 -3.234375 3.148438 -3.160156 3.390625 -3.078125 C 3.640625 -3.003906 3.84375 -2.898438 4 -2.765625 C 4.15625 -2.640625 4.273438 -2.484375 4.359375 -2.296875 C 4.441406 -2.109375 4.484375 -1.875 4.484375 -1.59375 C 4.484375 -1.25 4.382812 -0.953125 4.1875 -0.703125 C 4 -0.453125 3.75 -0.257812 3.4375 -0.125 C 3.125 0.0078125 2.78125 0.078125 2.40625 0.078125 Z M 2.40625 0.078125 "/></g></g></g><g fill="#100f0f" fill-opacity="1"><g transform="translate(62.50508, 297.480018)"><g><path d="M 5.78125 -2.8125 C 5.78125 -2.414062 5.710938 -2.039062 5.578125 -1.6875 C 5.453125 -1.34375 5.265625 -1.035156 5.015625 -0.765625 C 4.773438 -0.503906 4.484375 -0.296875 4.140625 -0.140625 C 3.804688 0.00390625 3.441406 0.078125 3.046875 0.078125 C 2.648438 0.078125 2.285156 0.00390625 1.953125 -0.140625 C 1.617188 -0.296875 1.328125 -0.503906 1.078125 -0.765625 C 0.835938 -1.035156 0.648438 -1.34375 0.515625 -1.6875 C 0.390625 -2.039062 0.328125 -2.414062 0.328125 -2.8125 C 0.328125 -3.21875 0.390625 -3.59375 0.515625 -3.9375 C 0.648438 -4.289062 0.835938 -4.597656 1.078125 -4.859375 C 1.328125 -5.128906 1.617188 -5.335938 1.953125 -5.484375 C 2.285156 -5.640625 2.648438 -5.71875 3.046875 -5.71875 C 3.441406 -5.71875 3.804688 -5.640625 4.140625 -5.484375 C 4.484375 -5.335938 4.773438 -5.128906 5.015625 -4.859375 C 5.265625 -4.597656 5.453125 -4.289062 5.578125 -3.9375 C 5.710938 -3.59375 5.78125 -3.21875 5.78125 -2.8125 Z M 4.734375 -2.8125 C 4.734375 -3.175781 4.660156 -3.503906 4.515625 -3.796875 C 4.378906 -4.085938 4.179688 -4.316406 3.921875 -4.484375 C 3.671875 -4.660156 3.378906 -4.75 3.046875 -4.75 C 2.710938 -4.75 2.421875 -4.660156 2.171875 -4.484375 C 1.921875 -4.316406 1.722656 -4.085938 1.578125 -3.796875 C 1.441406 -3.503906 1.375 -3.175781 1.375 -2.8125 C 1.375 -2.457031 1.441406 -2.132812 1.578125 -1.84375 C 1.722656 -1.550781 1.921875 -1.316406 2.171875 -1.140625 C 2.421875 -0.972656 2.710938 -0.890625 3.046875 -0.890625 C 3.378906 -0.890625 3.671875 -0.972656 3.921875 -1.140625 C 4.179688 -1.316406 4.378906 -1.550781 4.515625 -1.84375 C 4.660156 -2.132812 4.734375 -2.457031 4.734375 -2.8125 Z M 4.734375 -2.8125 "/></g></g></g><g fill="#100f0f" fill-opacity="1"><g transform="translate(68.410768, 297.480018)"><g><path d="M 4.875 -5.625 C 5 -5.625 5.101562 -5.582031 5.1875 -5.5 C 5.269531 -5.414062 5.3125 -5.3125 5.3125 -5.1875 L 5.3125 -0.484375 C 5.3125 -0.347656 5.265625 -0.234375 5.171875 -0.140625 C 5.078125 -0.046875 4.957031 0 4.8125 0 C 4.75 0 4.679688 -0.0078125 4.609375 -0.03125 C 4.535156 -0.0625 4.476562 -0.0976562 4.4375 -0.140625 L 1.28125 -4.15625 L 1.484375 -4.28125 L 1.484375 -0.453125 C 1.484375 -0.316406 1.441406 -0.207031 1.359375 -0.125 C 1.273438 -0.0390625 1.164062 0 1.03125 0 C 0.90625 0 0.800781 -0.0390625 0.71875 -0.125 C 0.644531 -0.207031 0.609375 -0.316406 0.609375 -0.453125 L 0.609375 -5.140625 C 0.609375 -5.273438 0.65625 -5.390625 0.75 -5.484375 C 0.84375 -5.578125 0.957031 -5.625 1.09375 -5.625 C 1.164062 -5.625 1.242188 -5.609375 1.328125 -5.578125 C 1.410156 -5.554688 1.46875 -5.515625 1.5 -5.453125 L 4.578125 -1.546875 L 4.4375 -1.453125 L 4.4375 -5.1875 C 4.4375 -5.3125 4.472656 -5.414062 4.546875 -5.5 C 4.628906 -5.582031 4.738281 -5.625 4.875 -5.625 Z M 4.875 -5.625 "/></g></g></g><g fill="#100f0f" fill-opacity="1"><g transform="translate(74.123359, 297.480018)"><g><path d="M 2.671875 -4.375 L 0.9375 -0.28125 C 0.894531 -0.175781 0.832031 -0.09375 0.75 -0.03125 C 0.675781 0.0195312 0.59375 0.046875 0.5 0.046875 C 0.363281 0.046875 0.257812 0.00390625 0.1875 -0.078125 C 0.113281 -0.160156 0.078125 -0.257812 0.078125 -0.375 C 0.078125 -0.425781 0.0859375 -0.476562 0.109375 -0.53125 L 2.109375 -5.34375 C 2.148438 -5.445312 2.210938 -5.53125 2.296875 -5.59375 C 2.390625 -5.65625 2.488281 -5.679688 2.59375 -5.671875 C 2.6875 -5.671875 2.773438 -5.640625 2.859375 -5.578125 C 2.941406 -5.523438 3.003906 -5.445312 3.046875 -5.34375 L 5.015625 -0.625 C 5.046875 -0.550781 5.0625 -0.488281 5.0625 -0.4375 C 5.0625 -0.289062 5.015625 -0.171875 4.921875 -0.078125 C 4.828125 0.00390625 4.722656 0.046875 4.609375 0.046875 C 4.515625 0.046875 4.425781 0.015625 4.34375 -0.046875 C 4.269531 -0.109375 4.210938 -0.191406 4.171875 -0.296875 L 2.4375 -4.328125 Z M 1.1875 -1.265625 L 1.625 -2.1875 L 3.796875 -2.1875 L 3.953125 -1.265625 Z M 1.1875 -1.265625 "/></g></g></g><g fill="#100f0f" fill-opacity="1"><g transform="translate(79.063545, 297.480018)"><g><path d="M 3.703125 -0.9375 C 3.847656 -0.9375 3.96875 -0.890625 4.0625 -0.796875 C 4.15625 -0.710938 4.203125 -0.601562 4.203125 -0.46875 C 4.203125 -0.332031 4.15625 -0.21875 4.0625 -0.125 C 3.96875 -0.0390625 3.847656 0 3.703125 0 L 1.09375 0 C 0.957031 0 0.84375 -0.046875 0.75 -0.140625 C 0.65625 -0.234375 0.609375 -0.347656 0.609375 -0.484375 L 0.609375 -5.140625 C 0.609375 -5.273438 0.65625 -5.390625 0.75 -5.484375 C 0.84375 -5.578125 0.96875 -5.625 1.125 -5.625 C 1.25 -5.625 1.359375 -5.578125 1.453125 -5.484375 C 1.554688 -5.390625 1.609375 -5.273438 1.609375 -5.140625 L 1.609375 -0.796875 L 1.4375 -0.9375 Z M 3.703125 -0.9375 "/></g></g></g><g fill="#100f0f" fill-opacity="1"><g transform="translate(83.384194, 297.480018)"><g/></g></g><g fill="#100f0f" fill-opacity="1"><g transform="translate(85.435904, 297.480018)"><g><path d="M 1.109375 0 C 0.960938 0 0.84375 -0.046875 0.75 -0.140625 C 0.65625 -0.234375 0.609375 -0.347656 0.609375 -0.484375 L 0.609375 -5.140625 C 0.609375 -5.273438 0.65625 -5.390625 0.75 -5.484375 C 0.84375 -5.578125 0.957031 -5.625 1.09375 -5.625 L 3.703125 -5.625 C 3.847656 -5.625 3.96875 -5.582031 4.0625 -5.5 C 4.15625 -5.414062 4.203125 -5.300781 4.203125 -5.15625 C 4.203125 -5.039062 4.15625 -4.9375 4.0625 -4.84375 C 3.96875 -4.75 3.847656 -4.703125 3.703125 -4.703125 L 1.53125 -4.703125 L 1.609375 -4.796875 L 1.609375 -3.1875 L 1.546875 -3.296875 L 3.34375 -3.296875 C 3.488281 -3.296875 3.609375 -3.25 3.703125 -3.15625 C 3.796875 -3.070312 3.84375 -2.957031 3.84375 -2.8125 C 3.84375 -2.695312 3.796875 -2.59375 3.703125 -2.5 C 3.609375 -2.40625 3.488281 -2.359375 3.34375 -2.359375 L 1.53125 -2.359375 L 1.609375 -2.4375 L 1.609375 -0.484375 C 1.609375 -0.347656 1.554688 -0.234375 1.453125 -0.140625 C 1.359375 -0.046875 1.242188 0 1.109375 0 Z M 1.109375 0 "/></g></g></g><g fill="#100f0f" fill-opacity="1"><g transform="translate(89.75655, 297.480018)"><g><path d="M 1.609375 -0.484375 C 1.609375 -0.347656 1.554688 -0.234375 1.453125 -0.140625 C 1.347656 -0.046875 1.234375 0 1.109375 0 C 0.953125 0 0.828125 -0.046875 0.734375 -0.140625 C 0.648438 -0.234375 0.609375 -0.347656 0.609375 -0.484375 L 0.609375 -5.140625 C 0.609375 -5.273438 0.65625 -5.390625 0.75 -5.484375 C 0.84375 -5.578125 0.96875 -5.625 1.125 -5.625 C 1.25 -5.625 1.359375 -5.578125 1.453125 -5.484375 C 1.554688 -5.390625 1.609375 -5.273438 1.609375 -5.140625 Z M 1.609375 -0.484375 "/></g></g></g><g fill="#100f0f" fill-opacity="1"><g transform="translate(91.768019, 297.480018)"><g><path d="M 4.875 -5.625 C 5 -5.625 5.101562 -5.582031 5.1875 -5.5 C 5.269531 -5.414062 5.3125 -5.3125 5.3125 -5.1875 L 5.3125 -0.484375 C 5.3125 -0.347656 5.265625 -0.234375 5.171875 -0.140625 C 5.078125 -0.046875 4.957031 0 4.8125 0 C 4.75 0 4.679688 -0.0078125 4.609375 -0.03125 C 4.535156 -0.0625 4.476562 -0.0976562 4.4375 -0.140625 L 1.28125 -4.15625 L 1.484375 -4.28125 L 1.484375 -0.453125 C 1.484375 -0.316406 1.441406 -0.207031 1.359375 -0.125 C 1.273438 -0.0390625 1.164062 0 1.03125 0 C 0.90625 0 0.800781 -0.0390625 0.71875 -0.125 C 0.644531 -0.207031 0.609375 -0.316406 0.609375 -0.453125 L 0.609375 -5.140625 C 0.609375 -5.273438 0.65625 -5.390625 0.75 -5.484375 C 0.84375 -5.578125 0.957031 -5.625 1.09375 -5.625 C 1.164062 -5.625 1.242188 -5.609375 1.328125 -5.578125 C 1.410156 -5.554688 1.46875 -5.515625 1.5 -5.453125 L 4.578125 -1.546875 L 4.4375 -1.453125 L 4.4375 -5.1875 C 4.4375 -5.3125 4.472656 -5.414062 4.546875 -5.5 C 4.628906 -5.582031 4.738281 -5.625 4.875 -5.625 Z M 4.875 -5.625 "/></g></g></g><g fill="#100f0f" fill-opacity="1"><g transform="translate(97.480608, 297.480018)"><g><path d="M 2.671875 -4.375 L 0.9375 -0.28125 C 0.894531 -0.175781 0.832031 -0.09375 0.75 -0.03125 C 0.675781 0.0195312 0.59375 0.046875 0.5 0.046875 C 0.363281 0.046875 0.257812 0.00390625 0.1875 -0.078125 C 0.113281 -0.160156 0.078125 -0.257812 0.078125 -0.375 C 0.078125 -0.425781 0.0859375 -0.476562 0.109375 -0.53125 L 2.109375 -5.34375 C 2.148438 -5.445312 2.210938 -5.53125 2.296875 -5.59375 C 2.390625 -5.65625 2.488281 -5.679688 2.59375 -5.671875 C 2.6875 -5.671875 2.773438 -5.640625 2.859375 -5.578125 C 2.941406 -5.523438 3.003906 -5.445312 3.046875 -5.34375 L 5.015625 -0.625 C 5.046875 -0.550781 5.0625 -0.488281 5.0625 -0.4375 C 5.0625 -0.289062 5.015625 -0.171875 4.921875 -0.078125 C 4.828125 0.00390625 4.722656 0.046875 4.609375 0.046875 C 4.515625 0.046875 4.425781 0.015625 4.34375 -0.046875 C 4.269531 -0.109375 4.210938 -0.191406 4.171875 -0.296875 L 2.4375 -4.328125 Z M 1.1875 -1.265625 L 1.625 -2.1875 L 3.796875 -2.1875 L 3.953125 -1.265625 Z M 1.1875 -1.265625 "/></g></g></g><g fill="#100f0f" fill-opacity="1"><g transform="translate(102.420791, 297.480018)"><g><path d="M 4.875 -5.625 C 5 -5.625 5.101562 -5.582031 5.1875 -5.5 C 5.269531 -5.414062 5.3125 -5.3125 5.3125 -5.1875 L 5.3125 -0.484375 C 5.3125 -0.347656 5.265625 -0.234375 5.171875 -0.140625 C 5.078125 -0.046875 4.957031 0 4.8125 0 C 4.75 0 4.679688 -0.0078125 4.609375 -0.03125 C 4.535156 -0.0625 4.476562 -0.0976562 4.4375 -0.140625 L 1.28125 -4.15625 L 1.484375 -4.28125 L 1.484375 -0.453125 C 1.484375 -0.316406 1.441406 -0.207031 1.359375 -0.125 C 1.273438 -0.0390625 1.164062 0 1.03125 0 C 0.90625 0 0.800781 -0.0390625 0.71875 -0.125 C 0.644531 -0.207031 0.609375 -0.316406 0.609375 -0.453125 L 0.609375 -5.140625 C 0.609375 -5.273438 0.65625 -5.390625 0.75 -5.484375 C 0.84375 -5.578125 0.957031 -5.625 1.09375 -5.625 C 1.164062 -5.625 1.242188 -5.609375 1.328125 -5.578125 C 1.410156 -5.554688 1.46875 -5.515625 1.5 -5.453125 L 4.578125 -1.546875 L 4.4375 -1.453125 L 4.4375 -5.1875 C 4.4375 -5.3125 4.472656 -5.414062 4.546875 -5.5 C 4.628906 -5.582031 4.738281 -5.625 4.875 -5.625 Z M 4.875 -5.625 "/></g></g></g><g fill="#100f0f" fill-opacity="1"><g transform="translate(108.13338, 297.480018)"><g><path d="M 4.546875 -5.359375 C 4.679688 -5.285156 4.757812 -5.171875 4.78125 -5.015625 C 4.8125 -4.867188 4.773438 -4.738281 4.671875 -4.625 C 4.609375 -4.519531 4.519531 -4.460938 4.40625 -4.453125 C 4.289062 -4.441406 4.179688 -4.460938 4.078125 -4.515625 C 3.941406 -4.578125 3.800781 -4.625 3.65625 -4.65625 C 3.519531 -4.6875 3.375 -4.703125 3.21875 -4.703125 C 2.925781 -4.703125 2.664062 -4.65625 2.4375 -4.5625 C 2.207031 -4.476562 2.015625 -4.347656 1.859375 -4.171875 C 1.703125 -4.003906 1.582031 -3.804688 1.5 -3.578125 C 1.414062 -3.347656 1.375 -3.09375 1.375 -2.8125 C 1.375 -2.488281 1.421875 -2.203125 1.515625 -1.953125 C 1.609375 -1.710938 1.738281 -1.515625 1.90625 -1.359375 C 2.070312 -1.203125 2.265625 -1.082031 2.484375 -1 C 2.710938 -0.925781 2.957031 -0.890625 3.21875 -0.890625 C 3.363281 -0.890625 3.507812 -0.898438 3.65625 -0.921875 C 3.800781 -0.953125 3.941406 -1 4.078125 -1.0625 C 4.179688 -1.125 4.289062 -1.144531 4.40625 -1.125 C 4.519531 -1.113281 4.613281 -1.054688 4.6875 -0.953125 C 4.789062 -0.816406 4.828125 -0.675781 4.796875 -0.53125 C 4.765625 -0.394531 4.679688 -0.296875 4.546875 -0.234375 C 4.410156 -0.160156 4.269531 -0.0976562 4.125 -0.046875 C 3.976562 -0.00390625 3.828125 0.0234375 3.671875 0.046875 C 3.523438 0.0664062 3.375 0.078125 3.21875 0.078125 C 2.832031 0.078125 2.460938 0.015625 2.109375 -0.109375 C 1.765625 -0.234375 1.457031 -0.414062 1.1875 -0.65625 C 0.914062 -0.894531 0.703125 -1.191406 0.546875 -1.546875 C 0.398438 -1.910156 0.328125 -2.332031 0.328125 -2.8125 C 0.328125 -3.226562 0.394531 -3.609375 0.53125 -3.953125 C 0.675781 -4.304688 0.878906 -4.609375 1.140625 -4.859375 C 1.398438 -5.117188 1.707031 -5.316406 2.0625 -5.453125 C 2.414062 -5.597656 2.800781 -5.671875 3.21875 -5.671875 C 3.457031 -5.671875 3.6875 -5.644531 3.90625 -5.59375 C 4.132812 -5.539062 4.347656 -5.460938 4.546875 -5.359375 Z M 4.546875 -5.359375 "/></g></g></g><g fill="#100f0f" fill-opacity="1"><g transform="translate(112.977005, 297.480018)"><g><path d="M 1.09375 -5.625 L 3.796875 -5.625 C 3.929688 -5.625 4.046875 -5.582031 4.140625 -5.5 C 4.234375 -5.414062 4.28125 -5.300781 4.28125 -5.15625 C 4.28125 -5.019531 4.234375 -4.910156 4.140625 -4.828125 C 4.046875 -4.742188 3.929688 -4.703125 3.796875 -4.703125 L 1.53125 -4.703125 L 1.609375 -4.84375 L 1.609375 -3.28125 L 1.546875 -3.34375 L 3.421875 -3.34375 C 3.566406 -3.34375 3.6875 -3.296875 3.78125 -3.203125 C 3.875 -3.117188 3.921875 -3.003906 3.921875 -2.859375 C 3.921875 -2.722656 3.875 -2.613281 3.78125 -2.53125 C 3.6875 -2.445312 3.566406 -2.40625 3.421875 -2.40625 L 1.5625 -2.40625 L 1.609375 -2.484375 L 1.609375 -0.859375 L 1.546875 -0.921875 L 3.796875 -0.921875 C 3.929688 -0.921875 4.046875 -0.875 4.140625 -0.78125 C 4.234375 -0.6875 4.28125 -0.578125 4.28125 -0.453125 C 4.28125 -0.316406 4.234375 -0.207031 4.140625 -0.125 C 4.046875 -0.0390625 3.929688 0 3.796875 0 L 1.09375 0 C 0.957031 0 0.84375 -0.046875 0.75 -0.140625 C 0.65625 -0.234375 0.609375 -0.347656 0.609375 -0.484375 L 0.609375 -5.140625 C 0.609375 -5.273438 0.65625 -5.390625 0.75 -5.484375 C 0.84375 -5.578125 0.957031 -5.625 1.09375 -5.625 Z M 1.09375 -5.625 "/></g></g></g><g fill="#100f0f" fill-opacity="1"><g transform="translate(117.378106, 297.480018)"><g><path d="M 2.40625 0.078125 C 2.03125 0.078125 1.691406 0.03125 1.390625 -0.0625 C 1.097656 -0.15625 0.816406 -0.320312 0.546875 -0.5625 C 0.472656 -0.613281 0.414062 -0.675781 0.375 -0.75 C 0.34375 -0.832031 0.328125 -0.910156 0.328125 -0.984375 C 0.328125 -1.109375 0.367188 -1.21875 0.453125 -1.3125 C 0.546875 -1.40625 0.65625 -1.453125 0.78125 -1.453125 C 0.882812 -1.453125 0.976562 -1.421875 1.0625 -1.359375 C 1.269531 -1.191406 1.472656 -1.0625 1.671875 -0.96875 C 1.867188 -0.882812 2.113281 -0.84375 2.40625 -0.84375 C 2.613281 -0.84375 2.796875 -0.875 2.953125 -0.9375 C 3.117188 -1 3.253906 -1.082031 3.359375 -1.1875 C 3.460938 -1.289062 3.515625 -1.410156 3.515625 -1.546875 C 3.515625 -1.703125 3.46875 -1.835938 3.375 -1.953125 C 3.28125 -2.066406 3.128906 -2.160156 2.921875 -2.234375 C 2.722656 -2.316406 2.472656 -2.378906 2.171875 -2.421875 C 1.878906 -2.460938 1.625 -2.523438 1.40625 -2.609375 C 1.1875 -2.703125 1.003906 -2.816406 0.859375 -2.953125 C 0.710938 -3.085938 0.597656 -3.25 0.515625 -3.4375 C 0.441406 -3.625 0.40625 -3.832031 0.40625 -4.0625 C 0.40625 -4.414062 0.492188 -4.710938 0.671875 -4.953125 C 0.859375 -5.203125 1.101562 -5.390625 1.40625 -5.515625 C 1.707031 -5.648438 2.046875 -5.71875 2.421875 -5.71875 C 2.765625 -5.71875 3.085938 -5.664062 3.390625 -5.5625 C 3.691406 -5.457031 3.9375 -5.320312 4.125 -5.15625 C 4.28125 -5.03125 4.359375 -4.890625 4.359375 -4.734375 C 4.359375 -4.609375 4.3125 -4.5 4.21875 -4.40625 C 4.125 -4.3125 4.015625 -4.265625 3.890625 -4.265625 C 3.816406 -4.265625 3.742188 -4.289062 3.671875 -4.34375 C 3.585938 -4.414062 3.472656 -4.484375 3.328125 -4.546875 C 3.179688 -4.617188 3.023438 -4.675781 2.859375 -4.71875 C 2.703125 -4.757812 2.554688 -4.78125 2.421875 -4.78125 C 2.191406 -4.78125 1.992188 -4.75 1.828125 -4.6875 C 1.671875 -4.632812 1.550781 -4.554688 1.46875 -4.453125 C 1.394531 -4.359375 1.359375 -4.242188 1.359375 -4.109375 C 1.359375 -3.941406 1.40625 -3.804688 1.5 -3.703125 C 1.59375 -3.597656 1.726562 -3.515625 1.90625 -3.453125 C 2.082031 -3.390625 2.296875 -3.335938 2.546875 -3.296875 C 2.867188 -3.234375 3.148438 -3.160156 3.390625 -3.078125 C 3.640625 -3.003906 3.84375 -2.898438 4 -2.765625 C 4.15625 -2.640625 4.273438 -2.484375 4.359375 -2.296875 C 4.441406 -2.109375 4.484375 -1.875 4.484375 -1.59375 C 4.484375 -1.25 4.382812 -0.953125 4.1875 -0.703125 C 4 -0.453125 3.75 -0.257812 3.4375 -0.125 C 3.125 0.0078125 2.78125 0.078125 2.40625 0.078125 Z M 2.40625 0.078125 "/></g></g></g><g fill="#100f0f" fill-opacity="1"><g transform="translate(121.980355, 297.480018)"><g><path d="M 0.953125 -0.015625 C 0.796875 -0.015625 0.675781 -0.0507812 0.59375 -0.125 C 0.507812 -0.207031 0.46875 -0.328125 0.46875 -0.484375 L 0.46875 -0.625 C 0.46875 -0.78125 0.507812 -0.898438 0.59375 -0.984375 C 0.675781 -1.066406 0.796875 -1.109375 0.953125 -1.109375 L 1.046875 -1.109375 C 1.203125 -1.109375 1.320312 -1.066406 1.40625 -0.984375 C 1.488281 -0.898438 1.53125 -0.78125 1.53125 -0.625 L 1.53125 -0.484375 C 1.53125 -0.328125 1.488281 -0.207031 1.40625 -0.125 C 1.320312 -0.0507812 1.203125 -0.015625 1.046875 -0.015625 Z M 0.953125 -0.015625 "/></g></g></g><g fill="#100f0f" fill-opacity="1"><g transform="translate(318.427957, 195.772561)"><g><path d="M 1.09375 -5.625 L 3.796875 -5.625 C 3.929688 -5.625 4.046875 -5.582031 4.140625 -5.5 C 4.234375 -5.414062 4.28125 -5.300781 4.28125 -5.15625 C 4.28125 -5.019531 4.234375 -4.910156 4.140625 -4.828125 C 4.046875 -4.742188 3.929688 -4.703125 3.796875 -4.703125 L 1.53125 -4.703125 L 1.609375 -4.84375 L 1.609375 -3.28125 L 1.546875 -3.34375 L 3.421875 -3.34375 C 3.566406 -3.34375 3.6875 -3.296875 3.78125 -3.203125 C 3.875 -3.117188 3.921875 -3.003906 3.921875 -2.859375 C 3.921875 -2.722656 3.875 -2.613281 3.78125 -2.53125 C 3.6875 -2.445312 3.566406 -2.40625 3.421875 -2.40625 L 1.5625 -2.40625 L 1.609375 -2.484375 L 1.609375 -0.859375 L 1.546875 -0.921875 L 3.796875 -0.921875 C 3.929688 -0.921875 4.046875 -0.875 4.140625 -0.78125 C 4.234375 -0.6875 4.28125 -0.578125 4.28125 -0.453125 C 4.28125 -0.316406 4.234375 -0.207031 4.140625 -0.125 C 4.046875 -0.0390625 3.929688 0 3.796875 0 L 1.09375 0 C 0.957031 0 0.84375 -0.046875 0.75 -0.140625 C 0.65625 -0.234375 0.609375 -0.347656 0.609375 -0.484375 L 0.609375 -5.140625 C 0.609375 -5.273438 0.65625 -5.390625 0.75 -5.484375 C 0.84375 -5.578125 0.957031 -5.625 1.09375 -5.625 Z M 1.09375 -5.625 "/></g></g></g><g fill="#100f0f" fill-opacity="1"><g transform="translate(322.652052, 195.772561)"><g><path d="M 2.40625 0.078125 C 2.03125 0.078125 1.691406 0.03125 1.390625 -0.0625 C 1.097656 -0.15625 0.816406 -0.320312 0.546875 -0.5625 C 0.472656 -0.613281 0.414062 -0.675781 0.375 -0.75 C 0.34375 -0.832031 0.328125 -0.910156 0.328125 -0.984375 C 0.328125 -1.109375 0.367188 -1.21875 0.453125 -1.3125 C 0.546875 -1.40625 0.65625 -1.453125 0.78125 -1.453125 C 0.882812 -1.453125 0.976562 -1.421875 1.0625 -1.359375 C 1.269531 -1.191406 1.472656 -1.0625 1.671875 -0.96875 C 1.867188 -0.882812 2.113281 -0.84375 2.40625 -0.84375 C 2.613281 -0.84375 2.796875 -0.875 2.953125 -0.9375 C 3.117188 -1 3.253906 -1.082031 3.359375 -1.1875 C 3.460938 -1.289062 3.515625 -1.410156 3.515625 -1.546875 C 3.515625 -1.703125 3.46875 -1.835938 3.375 -1.953125 C 3.28125 -2.066406 3.128906 -2.160156 2.921875 -2.234375 C 2.722656 -2.316406 2.472656 -2.378906 2.171875 -2.421875 C 1.878906 -2.460938 1.625 -2.523438 1.40625 -2.609375 C 1.1875 -2.703125 1.003906 -2.816406 0.859375 -2.953125 C 0.710938 -3.085938 0.597656 -3.25 0.515625 -3.4375 C 0.441406 -3.625 0.40625 -3.832031 0.40625 -4.0625 C 0.40625 -4.414062 0.492188 -4.710938 0.671875 -4.953125 C 0.859375 -5.203125 1.101562 -5.390625 1.40625 -5.515625 C 1.707031 -5.648438 2.046875 -5.71875 2.421875 -5.71875 C 2.765625 -5.71875 3.085938 -5.664062 3.390625 -5.5625 C 3.691406 -5.457031 3.9375 -5.320312 4.125 -5.15625 C 4.28125 -5.03125 4.359375 -4.890625 4.359375 -4.734375 C 4.359375 -4.609375 4.3125 -4.5 4.21875 -4.40625 C 4.125 -4.3125 4.015625 -4.265625 3.890625 -4.265625 C 3.816406 -4.265625 3.742188 -4.289062 3.671875 -4.34375 C 3.585938 -4.414062 3.472656 -4.484375 3.328125 -4.546875 C 3.179688 -4.617188 3.023438 -4.675781 2.859375 -4.71875 C 2.703125 -4.757812 2.554688 -4.78125 2.421875 -4.78125 C 2.191406 -4.78125 1.992188 -4.75 1.828125 -4.6875 C 1.671875 -4.632812 1.550781 -4.554688 1.46875 -4.453125 C 1.394531 -4.359375 1.359375 -4.242188 1.359375 -4.109375 C 1.359375 -3.941406 1.40625 -3.804688 1.5 -3.703125 C 1.59375 -3.597656 1.726562 -3.515625 1.90625 -3.453125 C 2.082031 -3.390625 2.296875 -3.335938 2.546875 -3.296875 C 2.867188 -3.234375 3.148438 -3.160156 3.390625 -3.078125 C 3.640625 -3.003906 3.84375 -2.898438 4 -2.765625 C 4.15625 -2.640625 4.273438 -2.484375 4.359375 -2.296875 C 4.441406 -2.109375 4.484375 -1.875 4.484375 -1.59375 C 4.484375 -1.25 4.382812 -0.953125 4.1875 -0.703125 C 4 -0.453125 3.75 -0.257812 3.4375 -0.125 C 3.125 0.0078125 2.78125 0.078125 2.40625 0.078125 Z M 2.40625 0.078125 "/></g></g></g><g fill="#100f0f" fill-opacity="1"><g transform="translate(327.077294, 195.772561)"><g><path d="M 2.515625 0 C 2.359375 0 2.234375 -0.046875 2.140625 -0.140625 C 2.046875 -0.234375 2 -0.347656 2 -0.484375 L 2 -5.15625 L 3.046875 -5.15625 L 3.046875 -0.484375 C 3.046875 -0.347656 2.992188 -0.234375 2.890625 -0.140625 C 2.796875 -0.046875 2.671875 0 2.515625 0 Z M 0.734375 -4.703125 C 0.585938 -4.703125 0.46875 -4.742188 0.375 -4.828125 C 0.28125 -4.921875 0.234375 -5.035156 0.234375 -5.171875 C 0.234375 -5.316406 0.28125 -5.425781 0.375 -5.5 C 0.46875 -5.582031 0.585938 -5.625 0.734375 -5.625 L 4.3125 -5.625 C 4.445312 -5.625 4.5625 -5.582031 4.65625 -5.5 C 4.75 -5.414062 4.796875 -5.304688 4.796875 -5.171875 C 4.796875 -5.023438 4.75 -4.910156 4.65625 -4.828125 C 4.5625 -4.742188 4.445312 -4.703125 4.3125 -4.703125 Z M 0.734375 -4.703125 "/></g></g></g><g fill="#100f0f" fill-opacity="1"><g transform="translate(331.735871, 195.772561)"><g><path d="M 3.015625 -5.625 C 3.398438 -5.625 3.742188 -5.550781 4.046875 -5.40625 C 4.347656 -5.269531 4.601562 -5.070312 4.8125 -4.8125 C 5.019531 -4.550781 5.175781 -4.25 5.28125 -3.90625 C 5.382812 -3.5625 5.4375 -3.195312 5.4375 -2.8125 C 5.4375 -2.289062 5.34375 -1.816406 5.15625 -1.390625 C 4.96875 -0.960938 4.691406 -0.625 4.328125 -0.375 C 3.972656 -0.125 3.535156 0 3.015625 0 L 1.09375 0 C 0.957031 0 0.84375 -0.046875 0.75 -0.140625 C 0.65625 -0.234375 0.609375 -0.347656 0.609375 -0.484375 L 0.609375 -5.140625 C 0.609375 -5.273438 0.65625 -5.390625 0.75 -5.484375 C 0.84375 -5.578125 0.957031 -5.625 1.09375 -5.625 Z M 2.9375 -0.921875 C 3.269531 -0.921875 3.546875 -1.007812 3.765625 -1.1875 C 3.984375 -1.363281 4.140625 -1.59375 4.234375 -1.875 C 4.335938 -2.164062 4.390625 -2.476562 4.390625 -2.8125 C 4.390625 -3.0625 4.359375 -3.300781 4.296875 -3.53125 C 4.242188 -3.757812 4.15625 -3.960938 4.03125 -4.140625 C 3.914062 -4.316406 3.765625 -4.453125 3.578125 -4.546875 C 3.398438 -4.648438 3.1875 -4.703125 2.9375 -4.703125 L 1.53125 -4.703125 L 1.609375 -4.78125 L 1.609375 -0.84375 L 1.5625 -0.921875 Z M 2.9375 -0.921875 "/></g></g></g><g fill="#100f0f" fill-opacity="1"><g transform="translate(319.894647, 202.477426)"><g><path d="M 3.6875 -0.890625 C 3.8125 -0.890625 3.914062 -0.84375 4 -0.75 C 4.09375 -0.664062 4.140625 -0.5625 4.140625 -0.4375 C 4.140625 -0.3125 4.09375 -0.207031 4 -0.125 C 3.914062 -0.0390625 3.8125 0 3.6875 0 L 0.953125 0 C 0.804688 0 0.691406 -0.0390625 0.609375 -0.125 C 0.535156 -0.207031 0.5 -0.316406 0.5 -0.453125 C 0.5 -0.585938 0.546875 -0.707031 0.640625 -0.8125 L 2.390625 -2.6875 C 2.597656 -2.90625 2.757812 -3.125 2.875 -3.34375 C 2.988281 -3.570312 3.046875 -3.769531 3.046875 -3.9375 C 3.046875 -4.207031 2.96875 -4.421875 2.8125 -4.578125 C 2.65625 -4.742188 2.445312 -4.828125 2.1875 -4.828125 C 2.082031 -4.828125 1.976562 -4.800781 1.875 -4.75 C 1.769531 -4.707031 1.664062 -4.640625 1.5625 -4.546875 C 1.46875 -4.460938 1.375 -4.363281 1.28125 -4.25 C 1.21875 -4.164062 1.15625 -4.113281 1.09375 -4.09375 C 1.03125 -4.070312 0.972656 -4.0625 0.921875 -4.0625 C 0.796875 -4.0625 0.679688 -4.101562 0.578125 -4.1875 C 0.484375 -4.28125 0.4375 -4.382812 0.4375 -4.5 C 0.4375 -4.59375 0.46875 -4.679688 0.53125 -4.765625 C 0.59375 -4.859375 0.671875 -4.945312 0.765625 -5.03125 C 0.898438 -5.164062 1.050781 -5.285156 1.21875 -5.390625 C 1.382812 -5.492188 1.554688 -5.570312 1.734375 -5.625 C 1.910156 -5.6875 2.082031 -5.71875 2.25 -5.71875 C 2.601562 -5.71875 2.910156 -5.644531 3.171875 -5.5 C 3.441406 -5.351562 3.648438 -5.148438 3.796875 -4.890625 C 3.941406 -4.628906 4.015625 -4.320312 4.015625 -3.96875 C 4.015625 -3.675781 3.925781 -3.347656 3.75 -2.984375 C 3.582031 -2.628906 3.347656 -2.289062 3.046875 -1.96875 L 1.96875 -0.8125 L 1.875 -0.890625 Z M 3.6875 -0.890625 "/></g></g></g><g fill="#100f0f" fill-opacity="1"><g transform="translate(324.094607, 202.477426)"><g><path d="M 2.46875 0.078125 C 2.007812 0.078125 1.617188 -0.0390625 1.296875 -0.28125 C 0.984375 -0.53125 0.742188 -0.875 0.578125 -1.3125 C 0.410156 -1.75 0.328125 -2.25 0.328125 -2.8125 C 0.328125 -3.382812 0.410156 -3.890625 0.578125 -4.328125 C 0.742188 -4.765625 0.984375 -5.101562 1.296875 -5.34375 C 1.617188 -5.59375 2.007812 -5.71875 2.46875 -5.71875 C 2.925781 -5.71875 3.316406 -5.59375 3.640625 -5.34375 C 3.960938 -5.101562 4.207031 -4.765625 4.375 -4.328125 C 4.539062 -3.890625 4.625 -3.382812 4.625 -2.8125 C 4.625 -2.25 4.539062 -1.75 4.375 -1.3125 C 4.207031 -0.875 3.960938 -0.53125 3.640625 -0.28125 C 3.316406 -0.0390625 2.925781 0.078125 2.46875 0.078125 Z M 2.46875 -0.890625 C 2.695312 -0.890625 2.890625 -0.957031 3.046875 -1.09375 C 3.210938 -1.238281 3.34375 -1.453125 3.4375 -1.734375 C 3.53125 -2.023438 3.578125 -2.382812 3.578125 -2.8125 C 3.578125 -3.25 3.53125 -3.609375 3.4375 -3.890625 C 3.34375 -4.179688 3.210938 -4.394531 3.046875 -4.53125 C 2.890625 -4.675781 2.695312 -4.75 2.46875 -4.75 C 2.25 -4.75 2.054688 -4.675781 1.890625 -4.53125 C 1.722656 -4.394531 1.59375 -4.179688 1.5 -3.890625 C 1.414062 -3.609375 1.375 -3.25 1.375 -2.8125 C 1.375 -2.382812 1.414062 -2.023438 1.5 -1.734375 C 1.59375 -1.453125 1.722656 -1.238281 1.890625 -1.09375 C 2.054688 -0.957031 2.25 -0.890625 2.46875 -0.890625 Z M 2.46875 -0.890625 "/></g></g></g><g fill="#100f0f" fill-opacity="1"><g transform="translate(328.656635, 202.477426)"><g><path d="M 3.6875 -0.890625 C 3.8125 -0.890625 3.914062 -0.84375 4 -0.75 C 4.09375 -0.664062 4.140625 -0.5625 4.140625 -0.4375 C 4.140625 -0.3125 4.09375 -0.207031 4 -0.125 C 3.914062 -0.0390625 3.8125 0 3.6875 0 L 0.953125 0 C 0.804688 0 0.691406 -0.0390625 0.609375 -0.125 C 0.535156 -0.207031 0.5 -0.316406 0.5 -0.453125 C 0.5 -0.585938 0.546875 -0.707031 0.640625 -0.8125 L 2.390625 -2.6875 C 2.597656 -2.90625 2.757812 -3.125 2.875 -3.34375 C 2.988281 -3.570312 3.046875 -3.769531 3.046875 -3.9375 C 3.046875 -4.207031 2.96875 -4.421875 2.8125 -4.578125 C 2.65625 -4.742188 2.445312 -4.828125 2.1875 -4.828125 C 2.082031 -4.828125 1.976562 -4.800781 1.875 -4.75 C 1.769531 -4.707031 1.664062 -4.640625 1.5625 -4.546875 C 1.46875 -4.460938 1.375 -4.363281 1.28125 -4.25 C 1.21875 -4.164062 1.15625 -4.113281 1.09375 -4.09375 C 1.03125 -4.070312 0.972656 -4.0625 0.921875 -4.0625 C 0.796875 -4.0625 0.679688 -4.101562 0.578125 -4.1875 C 0.484375 -4.28125 0.4375 -4.382812 0.4375 -4.5 C 0.4375 -4.59375 0.46875 -4.679688 0.53125 -4.765625 C 0.59375 -4.859375 0.671875 -4.945312 0.765625 -5.03125 C 0.898438 -5.164062 1.050781 -5.285156 1.21875 -5.390625 C 1.382812 -5.492188 1.554688 -5.570312 1.734375 -5.625 C 1.910156 -5.6875 2.082031 -5.71875 2.25 -5.71875 C 2.601562 -5.71875 2.910156 -5.644531 3.171875 -5.5 C 3.441406 -5.351562 3.648438 -5.148438 3.796875 -4.890625 C 3.941406 -4.628906 4.015625 -4.320312 4.015625 -3.96875 C 4.015625 -3.675781 3.925781 -3.347656 3.75 -2.984375 C 3.582031 -2.628906 3.347656 -2.289062 3.046875 -1.96875 L 1.96875 -0.8125 L 1.875 -0.890625 Z M 3.6875 -0.890625 "/></g></g></g><g fill="#100f0f" fill-opacity="1"><g transform="translate(332.856595, 202.477426)"><g><path d="M 1.9375 0.078125 C 1.738281 0.078125 1.523438 0.046875 1.296875 -0.015625 C 1.078125 -0.078125 0.894531 -0.164062 0.75 -0.28125 C 0.675781 -0.34375 0.617188 -0.421875 0.578125 -0.515625 C 0.535156 -0.609375 0.515625 -0.695312 0.515625 -0.78125 C 0.515625 -0.875 0.550781 -0.957031 0.625 -1.03125 C 0.707031 -1.113281 0.820312 -1.15625 0.96875 -1.15625 C 1.070312 -1.15625 1.191406 -1.101562 1.328125 -1 C 1.421875 -0.945312 1.515625 -0.898438 1.609375 -0.859375 C 1.710938 -0.816406 1.820312 -0.796875 1.9375 -0.796875 C 2.1875 -0.796875 2.40625 -0.84375 2.59375 -0.9375 C 2.78125 -1.03125 2.925781 -1.160156 3.03125 -1.328125 C 3.132812 -1.492188 3.1875 -1.691406 3.1875 -1.921875 C 3.1875 -2.117188 3.140625 -2.289062 3.046875 -2.4375 C 2.953125 -2.582031 2.828125 -2.691406 2.671875 -2.765625 C 2.523438 -2.847656 2.363281 -2.890625 2.1875 -2.890625 C 2.019531 -2.890625 1.875 -2.863281 1.75 -2.8125 C 1.625 -2.757812 1.507812 -2.703125 1.40625 -2.640625 C 1.300781 -2.585938 1.203125 -2.5625 1.109375 -2.5625 C 0.929688 -2.5625 0.796875 -2.597656 0.703125 -2.671875 C 0.617188 -2.753906 0.566406 -2.847656 0.546875 -2.953125 C 0.523438 -3.066406 0.519531 -3.164062 0.53125 -3.25 L 0.78125 -5.203125 C 0.800781 -5.316406 0.851562 -5.410156 0.9375 -5.484375 C 1.03125 -5.554688 1.140625 -5.59375 1.265625 -5.59375 L 3.59375 -5.59375 C 3.71875 -5.59375 3.820312 -5.546875 3.90625 -5.453125 C 4 -5.367188 4.046875 -5.265625 4.046875 -5.140625 C 4.046875 -5.015625 4 -4.910156 3.90625 -4.828125 C 3.820312 -4.742188 3.71875 -4.703125 3.59375 -4.703125 L 1.515625 -4.703125 L 1.59375 -4.78125 L 1.390625 -3.140625 L 1.28125 -3.453125 C 1.3125 -3.503906 1.378906 -3.550781 1.484375 -3.59375 C 1.597656 -3.644531 1.722656 -3.6875 1.859375 -3.71875 C 1.992188 -3.757812 2.128906 -3.78125 2.265625 -3.78125 C 2.628906 -3.78125 2.953125 -3.695312 3.234375 -3.53125 C 3.515625 -3.375 3.738281 -3.15625 3.90625 -2.875 C 4.070312 -2.59375 4.15625 -2.273438 4.15625 -1.921875 C 4.15625 -1.515625 4.0625 -1.160156 3.875 -0.859375 C 3.695312 -0.554688 3.441406 -0.320312 3.109375 -0.15625 C 2.773438 0 2.382812 0.078125 1.9375 0.078125 Z M 1.9375 0.078125 "/></g></g></g></svg>