<svg xmlns="http://www.w3.org/2000/svg" xmlns:xlink="http://www.w3.org/1999/xlink" width="500" zoomAndPan="magnify" viewBox="0 0 375 374.999991" height="500" preserveAspectRatio="xMidYMid meet" version="1.0"><defs><g/><clipPath id="035c0b4c71"><path d="M 187.5 0 C 83.945312 0 0 83.945312 0 187.5 C 0 291.054688 83.945312 375 187.5 375 C 291.054688 375 375 291.054688 375 187.5 C 375 83.945312 291.054688 0 187.5 0 Z M 187.5 0 " clip-rule="nonzero"/></clipPath><clipPath id="07438249c4"><path d="M 130 197 L 158 197 L 158 276 L 130 276 Z M 130 197 " clip-rule="nonzero"/></clipPath><clipPath id="af395632a1"><path d="M 139.175781 197.503906 L 157.136719 199.609375 L 148.199219 275.828125 L 130.238281 273.722656 Z M 139.175781 197.503906 " clip-rule="nonzero"/></clipPath><clipPath id="6c50df8557"><path d="M 155.753906 179.769531 L 176.148438 179.769531 L 176.148438 200.164062 L 155.753906 200.164062 Z M 155.753906 179.769531 " clip-rule="nonzero"/></clipPath><clipPath id="1a56c80910"><path d="M 165.953125 179.769531 C 160.320312 179.769531 155.753906 184.335938 155.753906 189.964844 C 155.753906 195.597656 160.320312 200.164062 165.953125 200.164062 C 171.582031 200.164062 176.148438 195.597656 176.148438 189.964844 C 176.148438 184.335938 171.582031 179.769531 165.953125 179.769531 Z M 165.953125 179.769531 " clip-rule="nonzero"/></clipPath></defs><g clip-path="url(#035c0b4c71)"><rect x="-37.5" width="450" fill="#100f0f" y="-37.499999" height="449.999989" fill-opacity="1"/></g><g clip-path="url(#07438249c4)"><g clip-path="url(#af395632a1)"><path fill="#e4e2dd" d="M 139.175781 197.503906 L 157.136719 199.609375 L 148.203125 275.796875 L 130.242188 273.691406 Z M 139.175781 197.503906 " fill-opacity="1" fill-rule="nonzero"/></g></g><g fill="#ffffff" fill-opacity="1"><g transform="translate(52.847377, 176.478809)"><g><path d="M 4.09375 0 L 4.09375 -92.671875 L 32.359375 -92.671875 L 40.140625 -36.140625 L 47.90625 -92.671875 L 76.390625 -92.671875 L 76.390625 0 L 59.453125 0 L 59.453125 -66.78125 L 48.765625 0 L 32.15625 0 L 20.828125 -66.78125 L 20.828125 0 Z M 4.09375 0 "/></g></g></g><g fill="#ffffff" fill-opacity="1"><g transform="translate(127.397067, 176.478809)"><g><path d="M 26.21875 0.859375 C 18.738281 0.859375 13.054688 -1.421875 9.171875 -5.984375 C 5.285156 -10.554688 3.34375 -16.976562 3.34375 -25.25 L 3.34375 -69.375 C 3.34375 -77.351562 5.285156 -83.375 9.171875 -87.4375 C 13.054688 -91.507812 18.738281 -93.546875 26.21875 -93.546875 C 33.695312 -93.546875 39.378906 -91.507812 43.265625 -87.4375 C 47.148438 -83.375 49.09375 -77.351562 49.09375 -69.375 L 49.09375 -25.25 C 49.09375 -16.90625 47.148438 -10.46875 43.265625 -5.9375 C 39.378906 -1.40625 33.695312 0.859375 26.21875 0.859375 Z M 26.21875 -16.1875 C 27.875 -16.1875 28.988281 -16.90625 29.5625 -18.34375 C 30.132812 -19.78125 30.421875 -21.796875 30.421875 -24.390625 L 30.421875 -69.703125 C 30.421875 -71.710938 30.148438 -73.347656 29.609375 -74.609375 C 29.078125 -75.867188 27.984375 -76.5 26.328125 -76.5 C 23.234375 -76.5 21.6875 -74.160156 21.6875 -69.484375 L 21.6875 -24.28125 C 21.6875 -21.613281 22.007812 -19.597656 22.65625 -18.234375 C 23.300781 -16.867188 24.488281 -16.1875 26.21875 -16.1875 Z M 26.21875 -16.1875 "/></g></g></g><g fill="#ffffff" fill-opacity="1"><g transform="translate(173.895933, 176.478809)"><g><path d="M 4.09375 0 L 4.09375 -92.671875 L 23.203125 -92.671875 L 31.71875 -48.328125 L 31.71875 -92.671875 L 49.625 -92.671875 L 49.625 0 L 31.5 0 L 22.21875 -46.390625 L 22.21875 0 Z M 4.09375 0 "/></g></g></g><g fill="#ffffff" fill-opacity="1"><g transform="translate(221.689461, 176.478809)"><g><path d="M 4.09375 0 L 4.09375 -92.671875 L 41.21875 -92.671875 L 41.21875 -74.765625 L 22.984375 -74.765625 L 22.984375 -56.75 L 40.453125 -56.75 L 40.453125 -39.265625 L 22.984375 -39.265625 L 22.984375 -18.015625 L 42.40625 -18.015625 L 42.40625 0 Z M 4.09375 0 "/></g></g></g><g fill="#ffffff" fill-opacity="1"><g transform="translate(260.204634, 176.478809)"><g><path d="M 15.328125 0 L 15.328125 -30.53125 L 0.546875 -92.671875 L 18.875 -92.671875 L 24.0625 -61.28125 L 29.234375 -92.671875 L 47.578125 -92.671875 L 32.796875 -30.53125 L 32.796875 0 Z M 15.328125 0 "/></g></g></g><g clip-path="url(#6c50df8557)"><g clip-path="url(#1a56c80910)"><path fill="#e4e2dd" d="M 155.753906 179.769531 L 176.148438 179.769531 L 176.148438 200.164062 L 155.753906 200.164062 Z M 155.753906 179.769531 " fill-opacity="1" fill-rule="nonzero"/></g></g><g fill="#5864ff" fill-opacity="1"><g transform="translate(54.542626, 275.10489)"><g><path d="M 4.09375 0 L 4.09375 -92.671875 L 32.359375 -92.671875 L 40.140625 -36.140625 L 47.90625 -92.671875 L 76.390625 -92.671875 L 76.390625 0 L 59.453125 0 L 59.453125 -66.78125 L 48.765625 0 L 32.15625 0 L 20.828125 -66.78125 L 20.828125 0 Z M 4.09375 0 "/></g></g></g><g fill="#5864ff" fill-opacity="1"><g transform="translate(207.124509, 253.645707)"><g><path d="M 80.34375 -46.359375 L 94.09375 -24.796875 C 97.644531 -19.210938 98.765625 -14.039062 97.453125 -9.28125 C 96.140625 -4.53125 92.472656 -0.191406 86.453125 3.734375 L 50 27.234375 C 42.332031 32.210938 35.6875 34.570312 30.0625 34.3125 C 24.445312 34.0625 19.625 30.78125 15.59375 24.46875 L 2.203125 3.453125 Z M 27.8125 13.109375 C 29.625 15.960938 31.925781 16.5 34.71875 14.71875 L 75.015625 -10.96875 C 76.773438 -12.09375 78.003906 -13.070312 78.703125 -13.90625 C 79.410156 -14.75 79.6875 -15.628906 79.53125 -16.546875 C 79.375 -17.460938 78.8125 -18.679688 77.84375 -20.203125 L 76.734375 -21.921875 L 26.0625 10.390625 Z M 27.8125 13.109375 "/></g></g></g><g fill="#5864ff" fill-opacity="1"><g transform="translate(150.615893, 266.46197)"><g><path d="M 3.921875 1.203125 L 31.046875 -87.40625 L 49.3125 -81.8125 L 44.46875 -36.9375 L 57.453125 -79.328125 L 74.578125 -74.078125 L 47.453125 14.53125 L 30.125 9.21875 L 34.828125 -37.859375 L 21.25 6.5 Z M 3.921875 1.203125 "/></g></g></g><g fill="#e4e2dd" fill-opacity="1"><g transform="translate(58.911519, 297.480018)"><g><path d="M 2.921875 -5.625 C 3.203125 -5.625 3.460938 -5.546875 3.703125 -5.390625 C 3.953125 -5.234375 4.148438 -5.015625 4.296875 -4.734375 C 4.453125 -4.460938 4.53125 -4.160156 4.53125 -3.828125 C 4.53125 -3.492188 4.453125 -3.1875 4.296875 -2.90625 C 4.148438 -2.632812 3.953125 -2.414062 3.703125 -2.25 C 3.460938 -2.09375 3.203125 -2.015625 2.921875 -2.015625 L 1.453125 -2.015625 L 1.53125 -2.15625 L 1.53125 -0.484375 C 1.53125 -0.347656 1.484375 -0.234375 1.390625 -0.140625 C 1.304688 -0.046875 1.195312 0 1.0625 0 C 0.925781 0 0.816406 -0.046875 0.734375 -0.140625 C 0.648438 -0.234375 0.609375 -0.347656 0.609375 -0.484375 L 0.609375 -5.140625 C 0.609375 -5.273438 0.65625 -5.390625 0.75 -5.484375 C 0.84375 -5.578125 0.957031 -5.625 1.09375 -5.625 Z M 2.921875 -2.921875 C 3.023438 -2.921875 3.125 -2.960938 3.21875 -3.046875 C 3.320312 -3.140625 3.40625 -3.253906 3.46875 -3.390625 C 3.53125 -3.523438 3.5625 -3.671875 3.5625 -3.828125 C 3.5625 -3.984375 3.53125 -4.125 3.46875 -4.25 C 3.40625 -4.382812 3.320312 -4.492188 3.21875 -4.578125 C 3.125 -4.660156 3.023438 -4.703125 2.921875 -4.703125 L 1.4375 -4.703125 L 1.53125 -4.859375 L 1.53125 -2.796875 L 1.4375 -2.921875 Z M 2.921875 -2.921875 "/></g></g></g><g fill="#e4e2dd" fill-opacity="1"><g transform="translate(63.562049, 297.480018)"><g><path d="M 1.09375 -5.625 L 3.796875 -5.625 C 3.929688 -5.625 4.046875 -5.582031 4.140625 -5.5 C 4.234375 -5.414062 4.28125 -5.300781 4.28125 -5.15625 C 4.28125 -5.019531 4.234375 -4.910156 4.140625 -4.828125 C 4.046875 -4.742188 3.929688 -4.703125 3.796875 -4.703125 L 1.53125 -4.703125 L 1.609375 -4.84375 L 1.609375 -3.28125 L 1.546875 -3.34375 L 3.421875 -3.34375 C 3.566406 -3.34375 3.6875 -3.296875 3.78125 -3.203125 C 3.875 -3.117188 3.921875 -3.003906 3.921875 -2.859375 C 3.921875 -2.722656 3.875 -2.613281 3.78125 -2.53125 C 3.6875 -2.445312 3.566406 -2.40625 3.421875 -2.40625 L 1.5625 -2.40625 L 1.609375 -2.484375 L 1.609375 -0.859375 L 1.546875 -0.921875 L 3.796875 -0.921875 C 3.929688 -0.921875 4.046875 -0.875 4.140625 -0.78125 C 4.234375 -0.6875 4.28125 -0.578125 4.28125 -0.453125 C 4.28125 -0.316406 4.234375 -0.207031 4.140625 -0.125 C 4.046875 -0.0390625 3.929688 0 3.796875 0 L 1.09375 0 C 0.957031 0 0.84375 -0.046875 0.75 -0.140625 C 0.65625 -0.234375 0.609375 -0.347656 0.609375 -0.484375 L 0.609375 -5.140625 C 0.609375 -5.273438 0.65625 -5.390625 0.75 -5.484375 C 0.84375 -5.578125 0.957031 -5.625 1.09375 -5.625 Z M 1.09375 -5.625 "/></g></g></g><g fill="#e4e2dd" fill-opacity="1"><g transform="translate(67.963152, 297.480018)"><g><path d="M 1.1875 0 C 1.03125 0 0.894531 -0.046875 0.78125 -0.140625 C 0.664062 -0.234375 0.609375 -0.347656 0.609375 -0.484375 L 0.609375 -5.140625 C 0.609375 -5.273438 0.65625 -5.390625 0.75 -5.484375 C 0.84375 -5.578125 0.957031 -5.625 1.09375 -5.625 L 3.40625 -5.625 C 3.6875 -5.625 3.945312 -5.550781 4.1875 -5.40625 C 4.4375 -5.257812 4.632812 -5.054688 4.78125 -4.796875 C 4.9375 -4.535156 5.015625 -4.238281 5.015625 -3.90625 C 5.015625 -3.695312 4.972656 -3.492188 4.890625 -3.296875 C 4.804688 -3.109375 4.691406 -2.9375 4.546875 -2.78125 C 4.410156 -2.625 4.253906 -2.503906 4.078125 -2.421875 L 4.078125 -2.609375 C 4.234375 -2.523438 4.359375 -2.425781 4.453125 -2.3125 C 4.554688 -2.207031 4.632812 -2.09375 4.6875 -1.96875 C 4.738281 -1.84375 4.769531 -1.707031 4.78125 -1.5625 C 4.800781 -1.425781 4.816406 -1.304688 4.828125 -1.203125 C 4.835938 -1.097656 4.851562 -1.007812 4.875 -0.9375 C 4.90625 -0.875 4.953125 -0.820312 5.015625 -0.78125 C 5.140625 -0.71875 5.210938 -0.617188 5.234375 -0.484375 C 5.265625 -0.359375 5.238281 -0.242188 5.15625 -0.140625 C 5.09375 -0.0664062 5.015625 -0.0195312 4.921875 0 C 4.828125 0.0195312 4.734375 0.0195312 4.640625 0 C 4.554688 -0.0195312 4.484375 -0.046875 4.421875 -0.078125 C 4.328125 -0.128906 4.234375 -0.207031 4.140625 -0.3125 C 4.054688 -0.414062 3.984375 -0.554688 3.921875 -0.734375 C 3.867188 -0.910156 3.84375 -1.140625 3.84375 -1.421875 C 3.84375 -1.515625 3.828125 -1.597656 3.796875 -1.671875 C 3.765625 -1.753906 3.71875 -1.820312 3.65625 -1.875 C 3.601562 -1.9375 3.53125 -1.976562 3.4375 -2 C 3.34375 -2.03125 3.234375 -2.046875 3.109375 -2.046875 L 1.484375 -2.046875 L 1.609375 -2.234375 L 1.609375 -0.484375 C 1.609375 -0.347656 1.570312 -0.234375 1.5 -0.140625 C 1.425781 -0.046875 1.320312 0 1.1875 0 Z M 1.5 -2.875 L 3.375 -2.875 C 3.46875 -2.875 3.5625 -2.914062 3.65625 -3 C 3.75 -3.09375 3.820312 -3.21875 3.875 -3.375 C 3.9375 -3.53125 3.96875 -3.695312 3.96875 -3.875 C 3.96875 -4.113281 3.90625 -4.3125 3.78125 -4.46875 C 3.65625 -4.625 3.519531 -4.703125 3.375 -4.703125 L 1.515625 -4.703125 L 1.609375 -4.96875 L 1.609375 -2.6875 Z M 1.5 -2.875 "/></g></g></g><g fill="#e4e2dd" fill-opacity="1"><g transform="translate(73.289539, 297.480018)"><g><path d="M 2.40625 0.078125 C 2.03125 0.078125 1.691406 0.03125 1.390625 -0.0625 C 1.097656 -0.15625 0.816406 -0.320312 0.546875 -0.5625 C 0.472656 -0.613281 0.414062 -0.675781 0.375 -0.75 C 0.34375 -0.832031 0.328125 -0.910156 0.328125 -0.984375 C 0.328125 -1.109375 0.367188 -1.21875 0.453125 -1.3125 C 0.546875 -1.40625 0.65625 -1.453125 0.78125 -1.453125 C 0.882812 -1.453125 0.976562 -1.421875 1.0625 -1.359375 C 1.269531 -1.191406 1.472656 -1.0625 1.671875 -0.96875 C 1.867188 -0.882812 2.113281 -0.84375 2.40625 -0.84375 C 2.613281 -0.84375 2.796875 -0.875 2.953125 -0.9375 C 3.117188 -1 3.253906 -1.082031 3.359375 -1.1875 C 3.460938 -1.289062 3.515625 -1.410156 3.515625 -1.546875 C 3.515625 -1.703125 3.46875 -1.835938 3.375 -1.953125 C 3.28125 -2.066406 3.128906 -2.160156 2.921875 -2.234375 C 2.722656 -2.316406 2.472656 -2.378906 2.171875 -2.421875 C 1.878906 -2.460938 1.625 -2.523438 1.40625 -2.609375 C 1.1875 -2.703125 1.003906 -2.816406 0.859375 -2.953125 C 0.710938 -3.085938 0.597656 -3.25 0.515625 -3.4375 C 0.441406 -3.625 0.40625 -3.832031 0.40625 -4.0625 C 0.40625 -4.414062 0.492188 -4.710938 0.671875 -4.953125 C 0.859375 -5.203125 1.101562 -5.390625 1.40625 -5.515625 C 1.707031 -5.648438 2.046875 -5.71875 2.421875 -5.71875 C 2.765625 -5.71875 3.085938 -5.664062 3.390625 -5.5625 C 3.691406 -5.457031 3.9375 -5.320312 4.125 -5.15625 C 4.28125 -5.03125 4.359375 -4.890625 4.359375 -4.734375 C 4.359375 -4.609375 4.3125 -4.5 4.21875 -4.40625 C 4.125 -4.3125 4.015625 -4.265625 3.890625 -4.265625 C 3.816406 -4.265625 3.742188 -4.289062 3.671875 -4.34375 C 3.585938 -4.414062 3.472656 -4.484375 3.328125 -4.546875 C 3.179688 -4.617188 3.023438 -4.675781 2.859375 -4.71875 C 2.703125 -4.757812 2.554688 -4.78125 2.421875 -4.78125 C 2.191406 -4.78125 1.992188 -4.75 1.828125 -4.6875 C 1.671875 -4.632812 1.550781 -4.554688 1.46875 -4.453125 C 1.394531 -4.359375 1.359375 -4.242188 1.359375 -4.109375 C 1.359375 -3.941406 1.40625 -3.804688 1.5 -3.703125 C 1.59375 -3.597656 1.726562 -3.515625 1.90625 -3.453125 C 2.082031 -3.390625 2.296875 -3.335938 2.546875 -3.296875 C 2.867188 -3.234375 3.148438 -3.160156 3.390625 -3.078125 C 3.640625 -3.003906 3.84375 -2.898438 4 -2.765625 C 4.15625 -2.640625 4.273438 -2.484375 4.359375 -2.296875 C 4.441406 -2.109375 4.484375 -1.875 4.484375 -1.59375 C 4.484375 -1.25 4.382812 -0.953125 4.1875 -0.703125 C 4 -0.453125 3.75 -0.257812 3.4375 -0.125 C 3.125 0.0078125 2.78125 0.078125 2.40625 0.078125 Z M 2.40625 0.078125 "/></g></g></g><g fill="#e4e2dd" fill-opacity="1"><g transform="translate(77.891791, 297.480018)"><g><path d="M 5.78125 -2.8125 C 5.78125 -2.414062 5.710938 -2.039062 5.578125 -1.6875 C 5.453125 -1.34375 5.265625 -1.035156 5.015625 -0.765625 C 4.773438 -0.503906 4.484375 -0.296875 4.140625 -0.140625 C 3.804688 0.00390625 3.441406 0.078125 3.046875 0.078125 C 2.648438 0.078125 2.285156 0.00390625 1.953125 -0.140625 C 1.617188 -0.296875 1.328125 -0.503906 1.078125 -0.765625 C 0.835938 -1.035156 0.648438 -1.34375 0.515625 -1.6875 C 0.390625 -2.039062 0.328125 -2.414062 0.328125 -2.8125 C 0.328125 -3.21875 0.390625 -3.59375 0.515625 -3.9375 C 0.648438 -4.289062 0.835938 -4.597656 1.078125 -4.859375 C 1.328125 -5.128906 1.617188 -5.335938 1.953125 -5.484375 C 2.285156 -5.640625 2.648438 -5.71875 3.046875 -5.71875 C 3.441406 -5.71875 3.804688 -5.640625 4.140625 -5.484375 C 4.484375 -5.335938 4.773438 -5.128906 5.015625 -4.859375 C 5.265625 -4.597656 5.453125 -4.289062 5.578125 -3.9375 C 5.710938 -3.59375 5.78125 -3.21875 5.78125 -2.8125 Z M 4.734375 -2.8125 C 4.734375 -3.175781 4.660156 -3.503906 4.515625 -3.796875 C 4.378906 -4.085938 4.179688 -4.316406 3.921875 -4.484375 C 3.671875 -4.660156 3.378906 -4.75 3.046875 -4.75 C 2.710938 -4.75 2.421875 -4.660156 2.171875 -4.484375 C 1.921875 -4.316406 1.722656 -4.085938 1.578125 -3.796875 C 1.441406 -3.503906 1.375 -3.175781 1.375 -2.8125 C 1.375 -2.457031 1.441406 -2.132812 1.578125 -1.84375 C 1.722656 -1.550781 1.921875 -1.316406 2.171875 -1.140625 C 2.421875 -0.972656 2.710938 -0.890625 3.046875 -0.890625 C 3.378906 -0.890625 3.671875 -0.972656 3.921875 -1.140625 C 4.179688 -1.316406 4.378906 -1.550781 4.515625 -1.84375 C 4.660156 -2.132812 4.734375 -2.457031 4.734375 -2.8125 Z M 4.734375 -2.8125 "/></g></g></g><g fill="#e4e2dd" fill-opacity="1"><g transform="translate(83.797479, 297.480018)"><g><path d="M 4.875 -5.625 C 5 -5.625 5.101562 -5.582031 5.1875 -5.5 C 5.269531 -5.414062 5.3125 -5.3125 5.3125 -5.1875 L 5.3125 -0.484375 C 5.3125 -0.347656 5.265625 -0.234375 5.171875 -0.140625 C 5.078125 -0.046875 4.957031 0 4.8125 0 C 4.75 0 4.679688 -0.0078125 4.609375 -0.03125 C 4.535156 -0.0625 4.476562 -0.0976562 4.4375 -0.140625 L 1.28125 -4.15625 L 1.484375 -4.28125 L 1.484375 -0.453125 C 1.484375 -0.316406 1.441406 -0.207031 1.359375 -0.125 C 1.273438 -0.0390625 1.164062 0 1.03125 0 C 0.90625 0 0.800781 -0.0390625 0.71875 -0.125 C 0.644531 -0.207031 0.609375 -0.316406 0.609375 -0.453125 L 0.609375 -5.140625 C 0.609375 -5.273438 0.65625 -5.390625 0.75 -5.484375 C 0.84375 -5.578125 0.957031 -5.625 1.09375 -5.625 C 1.164062 -5.625 1.242188 -5.609375 1.328125 -5.578125 C 1.410156 -5.554688 1.46875 -5.515625 1.5 -5.453125 L 4.578125 -1.546875 L 4.4375 -1.453125 L 4.4375 -5.1875 C 4.4375 -5.3125 4.472656 -5.414062 4.546875 -5.5 C 4.628906 -5.582031 4.738281 -5.625 4.875 -5.625 Z M 4.875 -5.625 "/></g></g></g><g fill="#e4e2dd" fill-opacity="1"><g transform="translate(89.51007, 297.480018)"><g><path d="M 2.671875 -4.375 L 0.9375 -0.28125 C 0.894531 -0.175781 0.832031 -0.09375 0.75 -0.03125 C 0.675781 0.0195312 0.59375 0.046875 0.5 0.046875 C 0.363281 0.046875 0.257812 0.00390625 0.1875 -0.078125 C 0.113281 -0.160156 0.078125 -0.257812 0.078125 -0.375 C 0.078125 -0.425781 0.0859375 -0.476562 0.109375 -0.53125 L 2.109375 -5.34375 C 2.148438 -5.445312 2.210938 -5.53125 2.296875 -5.59375 C 2.390625 -5.65625 2.488281 -5.679688 2.59375 -5.671875 C 2.6875 -5.671875 2.773438 -5.640625 2.859375 -5.578125 C 2.941406 -5.523438 3.003906 -5.445312 3.046875 -5.34375 L 5.015625 -0.625 C 5.046875 -0.550781 5.0625 -0.488281 5.0625 -0.4375 C 5.0625 -0.289062 5.015625 -0.171875 4.921875 -0.078125 C 4.828125 0.00390625 4.722656 0.046875 4.609375 0.046875 C 4.515625 0.046875 4.425781 0.015625 4.34375 -0.046875 C 4.269531 -0.109375 4.210938 -0.191406 4.171875 -0.296875 L 2.4375 -4.328125 Z M 1.1875 -1.265625 L 1.625 -2.1875 L 3.796875 -2.1875 L 3.953125 -1.265625 Z M 1.1875 -1.265625 "/></g></g></g><g fill="#e4e2dd" fill-opacity="1"><g transform="translate(94.450256, 297.480018)"><g><path d="M 3.703125 -0.9375 C 3.847656 -0.9375 3.96875 -0.890625 4.0625 -0.796875 C 4.15625 -0.710938 4.203125 -0.601562 4.203125 -0.46875 C 4.203125 -0.332031 4.15625 -0.21875 4.0625 -0.125 C 3.96875 -0.0390625 3.847656 0 3.703125 0 L 1.09375 0 C 0.957031 0 0.84375 -0.046875 0.75 -0.140625 C 0.65625 -0.234375 0.609375 -0.347656 0.609375 -0.484375 L 0.609375 -5.140625 C 0.609375 -5.273438 0.65625 -5.390625 0.75 -5.484375 C 0.84375 -5.578125 0.96875 -5.625 1.125 -5.625 C 1.25 -5.625 1.359375 -5.578125 1.453125 -5.484375 C 1.554688 -5.390625 1.609375 -5.273438 1.609375 -5.140625 L 1.609375 -0.796875 L 1.4375 -0.9375 Z M 3.703125 -0.9375 "/></g></g></g><g fill="#e4e2dd" fill-opacity="1"><g transform="translate(98.770904, 297.480018)"><g/></g></g><g fill="#e4e2dd" fill-opacity="1"><g transform="translate(100.822615, 297.480018)"><g><path d="M 1.109375 0 C 0.960938 0 0.84375 -0.046875 0.75 -0.140625 C 0.65625 -0.234375 0.609375 -0.347656 0.609375 -0.484375 L 0.609375 -5.140625 C 0.609375 -5.273438 0.65625 -5.390625 0.75 -5.484375 C 0.84375 -5.578125 0.957031 -5.625 1.09375 -5.625 L 3.703125 -5.625 C 3.847656 -5.625 3.96875 -5.582031 4.0625 -5.5 C 4.15625 -5.414062 4.203125 -5.300781 4.203125 -5.15625 C 4.203125 -5.039062 4.15625 -4.9375 4.0625 -4.84375 C 3.96875 -4.75 3.847656 -4.703125 3.703125 -4.703125 L 1.53125 -4.703125 L 1.609375 -4.796875 L 1.609375 -3.1875 L 1.546875 -3.296875 L 3.34375 -3.296875 C 3.488281 -3.296875 3.609375 -3.25 3.703125 -3.15625 C 3.796875 -3.070312 3.84375 -2.957031 3.84375 -2.8125 C 3.84375 -2.695312 3.796875 -2.59375 3.703125 -2.5 C 3.609375 -2.40625 3.488281 -2.359375 3.34375 -2.359375 L 1.53125 -2.359375 L 1.609375 -2.4375 L 1.609375 -0.484375 C 1.609375 -0.347656 1.554688 -0.234375 1.453125 -0.140625 C 1.359375 -0.046875 1.242188 0 1.109375 0 Z M 1.109375 0 "/></g></g></g><g fill="#e4e2dd" fill-opacity="1"><g transform="translate(105.143261, 297.480018)"><g><path d="M 1.609375 -0.484375 C 1.609375 -0.347656 1.554688 -0.234375 1.453125 -0.140625 C 1.347656 -0.046875 1.234375 0 1.109375 0 C 0.953125 0 0.828125 -0.046875 0.734375 -0.140625 C 0.648438 -0.234375 0.609375 -0.347656 0.609375 -0.484375 L 0.609375 -5.140625 C 0.609375 -5.273438 0.65625 -5.390625 0.75 -5.484375 C 0.84375 -5.578125 0.96875 -5.625 1.125 -5.625 C 1.25 -5.625 1.359375 -5.578125 1.453125 -5.484375 C 1.554688 -5.390625 1.609375 -5.273438 1.609375 -5.140625 Z M 1.609375 -0.484375 "/></g></g></g><g fill="#e4e2dd" fill-opacity="1"><g transform="translate(107.15473, 297.480018)"><g><path d="M 4.875 -5.625 C 5 -5.625 5.101562 -5.582031 5.1875 -5.5 C 5.269531 -5.414062 5.3125 -5.3125 5.3125 -5.1875 L 5.3125 -0.484375 C 5.3125 -0.347656 5.265625 -0.234375 5.171875 -0.140625 C 5.078125 -0.046875 4.957031 0 4.8125 0 C 4.75 0 4.679688 -0.0078125 4.609375 -0.03125 C 4.535156 -0.0625 4.476562 -0.0976562 4.4375 -0.140625 L 1.28125 -4.15625 L 1.484375 -4.28125 L 1.484375 -0.453125 C 1.484375 -0.316406 1.441406 -0.207031 1.359375 -0.125 C 1.273438 -0.0390625 1.164062 0 1.03125 0 C 0.90625 0 0.800781 -0.0390625 0.71875 -0.125 C 0.644531 -0.207031 0.609375 -0.316406 0.609375 -0.453125 L 0.609375 -5.140625 C 0.609375 -5.273438 0.65625 -5.390625 0.75 -5.484375 C 0.84375 -5.578125 0.957031 -5.625 1.09375 -5.625 C 1.164062 -5.625 1.242188 -5.609375 1.328125 -5.578125 C 1.410156 -5.554688 1.46875 -5.515625 1.5 -5.453125 L 4.578125 -1.546875 L 4.4375 -1.453125 L 4.4375 -5.1875 C 4.4375 -5.3125 4.472656 -5.414062 4.546875 -5.5 C 4.628906 -5.582031 4.738281 -5.625 4.875 -5.625 Z M 4.875 -5.625 "/></g></g></g><g fill="#e4e2dd" fill-opacity="1"><g transform="translate(112.867319, 297.480018)"><g><path d="M 2.671875 -4.375 L 0.9375 -0.28125 C 0.894531 -0.175781 0.832031 -0.09375 0.75 -0.03125 C 0.675781 0.0195312 0.59375 0.046875 0.5 0.046875 C 0.363281 0.046875 0.257812 0.00390625 0.1875 -0.078125 C 0.113281 -0.160156 0.078125 -0.257812 0.078125 -0.375 C 0.078125 -0.425781 0.0859375 -0.476562 0.109375 -0.53125 L 2.109375 -5.34375 C 2.148438 -5.445312 2.210938 -5.53125 2.296875 -5.59375 C 2.390625 -5.65625 2.488281 -5.679688 2.59375 -5.671875 C 2.6875 -5.671875 2.773438 -5.640625 2.859375 -5.578125 C 2.941406 -5.523438 3.003906 -5.445312 3.046875 -5.34375 L 5.015625 -0.625 C 5.046875 -0.550781 5.0625 -0.488281 5.0625 -0.4375 C 5.0625 -0.289062 5.015625 -0.171875 4.921875 -0.078125 C 4.828125 0.00390625 4.722656 0.046875 4.609375 0.046875 C 4.515625 0.046875 4.425781 0.015625 4.34375 -0.046875 C 4.269531 -0.109375 4.210938 -0.191406 4.171875 -0.296875 L 2.4375 -4.328125 Z M 1.1875 -1.265625 L 1.625 -2.1875 L 3.796875 -2.1875 L 3.953125 -1.265625 Z M 1.1875 -1.265625 "/></g></g></g><g fill="#e4e2dd" fill-opacity="1"><g transform="translate(117.807502, 297.480018)"><g><path d="M 4.875 -5.625 C 5 -5.625 5.101562 -5.582031 5.1875 -5.5 C 5.269531 -5.414062 5.3125 -5.3125 5.3125 -5.1875 L 5.3125 -0.484375 C 5.3125 -0.347656 5.265625 -0.234375 5.171875 -0.140625 C 5.078125 -0.046875 4.957031 0 4.8125 0 C 4.75 0 4.679688 -0.0078125 4.609375 -0.03125 C 4.535156 -0.0625 4.476562 -0.0976562 4.4375 -0.140625 L 1.28125 -4.15625 L 1.484375 -4.28125 L 1.484375 -0.453125 C 1.484375 -0.316406 1.441406 -0.207031 1.359375 -0.125 C 1.273438 -0.0390625 1.164062 0 1.03125 0 C 0.90625 0 0.800781 -0.0390625 0.71875 -0.125 C 0.644531 -0.207031 0.609375 -0.316406 0.609375 -0.453125 L 0.609375 -5.140625 C 0.609375 -5.273438 0.65625 -5.390625 0.75 -5.484375 C 0.84375 -5.578125 0.957031 -5.625 1.09375 -5.625 C 1.164062 -5.625 1.242188 -5.609375 1.328125 -5.578125 C 1.410156 -5.554688 1.46875 -5.515625 1.5 -5.453125 L 4.578125 -1.546875 L 4.4375 -1.453125 L 4.4375 -5.1875 C 4.4375 -5.3125 4.472656 -5.414062 4.546875 -5.5 C 4.628906 -5.582031 4.738281 -5.625 4.875 -5.625 Z M 4.875 -5.625 "/></g></g></g><g fill="#e4e2dd" fill-opacity="1"><g transform="translate(123.520091, 297.480018)"><g><path d="M 4.546875 -5.359375 C 4.679688 -5.285156 4.757812 -5.171875 4.78125 -5.015625 C 4.8125 -4.867188 4.773438 -4.738281 4.671875 -4.625 C 4.609375 -4.519531 4.519531 -4.460938 4.40625 -4.453125 C 4.289062 -4.441406 4.179688 -4.460938 4.078125 -4.515625 C 3.941406 -4.578125 3.800781 -4.625 3.65625 -4.65625 C 3.519531 -4.6875 3.375 -4.703125 3.21875 -4.703125 C 2.925781 -4.703125 2.664062 -4.65625 2.4375 -4.5625 C 2.207031 -4.476562 2.015625 -4.347656 1.859375 -4.171875 C 1.703125 -4.003906 1.582031 -3.804688 1.5 -3.578125 C 1.414062 -3.347656 1.375 -3.09375 1.375 -2.8125 C 1.375 -2.488281 1.421875 -2.203125 1.515625 -1.953125 C 1.609375 -1.710938 1.738281 -1.515625 1.90625 -1.359375 C 2.070312 -1.203125 2.265625 -1.082031 2.484375 -1 C 2.710938 -0.925781 2.957031 -0.890625 3.21875 -0.890625 C 3.363281 -0.890625 3.507812 -0.898438 3.65625 -0.921875 C 3.800781 -0.953125 3.941406 -1 4.078125 -1.0625 C 4.179688 -1.125 4.289062 -1.144531 4.40625 -1.125 C 4.519531 -1.113281 4.613281 -1.054688 4.6875 -0.953125 C 4.789062 -0.816406 4.828125 -0.675781 4.796875 -0.53125 C 4.765625 -0.394531 4.679688 -0.296875 4.546875 -0.234375 C 4.410156 -0.160156 4.269531 -0.0976562 4.125 -0.046875 C 3.976562 -0.00390625 3.828125 0.0234375 3.671875 0.046875 C 3.523438 0.0664062 3.375 0.078125 3.21875 0.078125 C 2.832031 0.078125 2.460938 0.015625 2.109375 -0.109375 C 1.765625 -0.234375 1.457031 -0.414062 1.1875 -0.65625 C 0.914062 -0.894531 0.703125 -1.191406 0.546875 -1.546875 C 0.398438 -1.910156 0.328125 -2.332031 0.328125 -2.8125 C 0.328125 -3.226562 0.394531 -3.609375 0.53125 -3.953125 C 0.675781 -4.304688 0.878906 -4.609375 1.140625 -4.859375 C 1.398438 -5.117188 1.707031 -5.316406 2.0625 -5.453125 C 2.414062 -5.597656 2.800781 -5.671875 3.21875 -5.671875 C 3.457031 -5.671875 3.6875 -5.644531 3.90625 -5.59375 C 4.132812 -5.539062 4.347656 -5.460938 4.546875 -5.359375 Z M 4.546875 -5.359375 "/></g></g></g><g fill="#e4e2dd" fill-opacity="1"><g transform="translate(128.363716, 297.480018)"><g><path d="M 1.09375 -5.625 L 3.796875 -5.625 C 3.929688 -5.625 4.046875 -5.582031 4.140625 -5.5 C 4.234375 -5.414062 4.28125 -5.300781 4.28125 -5.15625 C 4.28125 -5.019531 4.234375 -4.910156 4.140625 -4.828125 C 4.046875 -4.742188 3.929688 -4.703125 3.796875 -4.703125 L 1.53125 -4.703125 L 1.609375 -4.84375 L 1.609375 -3.28125 L 1.546875 -3.34375 L 3.421875 -3.34375 C 3.566406 -3.34375 3.6875 -3.296875 3.78125 -3.203125 C 3.875 -3.117188 3.921875 -3.003906 3.921875 -2.859375 C 3.921875 -2.722656 3.875 -2.613281 3.78125 -2.53125 C 3.6875 -2.445312 3.566406 -2.40625 3.421875 -2.40625 L 1.5625 -2.40625 L 1.609375 -2.484375 L 1.609375 -0.859375 L 1.546875 -0.921875 L 3.796875 -0.921875 C 3.929688 -0.921875 4.046875 -0.875 4.140625 -0.78125 C 4.234375 -0.6875 4.28125 -0.578125 4.28125 -0.453125 C 4.28125 -0.316406 4.234375 -0.207031 4.140625 -0.125 C 4.046875 -0.0390625 3.929688 0 3.796875 0 L 1.09375 0 C 0.957031 0 0.84375 -0.046875 0.75 -0.140625 C 0.65625 -0.234375 0.609375 -0.347656 0.609375 -0.484375 L 0.609375 -5.140625 C 0.609375 -5.273438 0.65625 -5.390625 0.75 -5.484375 C 0.84375 -5.578125 0.957031 -5.625 1.09375 -5.625 Z M 1.09375 -5.625 "/></g></g></g><g fill="#e4e2dd" fill-opacity="1"><g transform="translate(132.764817, 297.480018)"><g><path d="M 2.40625 0.078125 C 2.03125 0.078125 1.691406 0.03125 1.390625 -0.0625 C 1.097656 -0.15625 0.816406 -0.320312 0.546875 -0.5625 C 0.472656 -0.613281 0.414062 -0.675781 0.375 -0.75 C 0.34375 -0.832031 0.328125 -0.910156 0.328125 -0.984375 C 0.328125 -1.109375 0.367188 -1.21875 0.453125 -1.3125 C 0.546875 -1.40625 0.65625 -1.453125 0.78125 -1.453125 C 0.882812 -1.453125 0.976562 -1.421875 1.0625 -1.359375 C 1.269531 -1.191406 1.472656 -1.0625 1.671875 -0.96875 C 1.867188 -0.882812 2.113281 -0.84375 2.40625 -0.84375 C 2.613281 -0.84375 2.796875 -0.875 2.953125 -0.9375 C 3.117188 -1 3.253906 -1.082031 3.359375 -1.1875 C 3.460938 -1.289062 3.515625 -1.410156 3.515625 -1.546875 C 3.515625 -1.703125 3.46875 -1.835938 3.375 -1.953125 C 3.28125 -2.066406 3.128906 -2.160156 2.921875 -2.234375 C 2.722656 -2.316406 2.472656 -2.378906 2.171875 -2.421875 C 1.878906 -2.460938 1.625 -2.523438 1.40625 -2.609375 C 1.1875 -2.703125 1.003906 -2.816406 0.859375 -2.953125 C 0.710938 -3.085938 0.597656 -3.25 0.515625 -3.4375 C 0.441406 -3.625 0.40625 -3.832031 0.40625 -4.0625 C 0.40625 -4.414062 0.492188 -4.710938 0.671875 -4.953125 C 0.859375 -5.203125 1.101562 -5.390625 1.40625 -5.515625 C 1.707031 -5.648438 2.046875 -5.71875 2.421875 -5.71875 C 2.765625 -5.71875 3.085938 -5.664062 3.390625 -5.5625 C 3.691406 -5.457031 3.9375 -5.320312 4.125 -5.15625 C 4.28125 -5.03125 4.359375 -4.890625 4.359375 -4.734375 C 4.359375 -4.609375 4.3125 -4.5 4.21875 -4.40625 C 4.125 -4.3125 4.015625 -4.265625 3.890625 -4.265625 C 3.816406 -4.265625 3.742188 -4.289062 3.671875 -4.34375 C 3.585938 -4.414062 3.472656 -4.484375 3.328125 -4.546875 C 3.179688 -4.617188 3.023438 -4.675781 2.859375 -4.71875 C 2.703125 -4.757812 2.554688 -4.78125 2.421875 -4.78125 C 2.191406 -4.78125 1.992188 -4.75 1.828125 -4.6875 C 1.671875 -4.632812 1.550781 -4.554688 1.46875 -4.453125 C 1.394531 -4.359375 1.359375 -4.242188 1.359375 -4.109375 C 1.359375 -3.941406 1.40625 -3.804688 1.5 -3.703125 C 1.59375 -3.597656 1.726562 -3.515625 1.90625 -3.453125 C 2.082031 -3.390625 2.296875 -3.335938 2.546875 -3.296875 C 2.867188 -3.234375 3.148438 -3.160156 3.390625 -3.078125 C 3.640625 -3.003906 3.84375 -2.898438 4 -2.765625 C 4.15625 -2.640625 4.273438 -2.484375 4.359375 -2.296875 C 4.441406 -2.109375 4.484375 -1.875 4.484375 -1.59375 C 4.484375 -1.25 4.382812 -0.953125 4.1875 -0.703125 C 4 -0.453125 3.75 -0.257812 3.4375 -0.125 C 3.125 0.0078125 2.78125 0.078125 2.40625 0.078125 Z M 2.40625 0.078125 "/></g></g></g><g fill="#e4e2dd" fill-opacity="1"><g transform="translate(137.367066, 297.480018)"><g><path d="M 0.953125 -0.015625 C 0.796875 -0.015625 0.675781 -0.0507812 0.59375 -0.125 C 0.507812 -0.207031 0.46875 -0.328125 0.46875 -0.484375 L 0.46875 -0.625 C 0.46875 -0.78125 0.507812 -0.898438 0.59375 -0.984375 C 0.675781 -1.066406 0.796875 -1.109375 0.953125 -1.109375 L 1.046875 -1.109375 C 1.203125 -1.109375 1.320312 -1.066406 1.40625 -0.984375 C 1.488281 -0.898438 1.53125 -0.78125 1.53125 -0.625 L 1.53125 -0.484375 C 1.53125 -0.328125 1.488281 -0.207031 1.40625 -0.125 C 1.320312 -0.0507812 1.203125 -0.015625 1.046875 -0.015625 Z M 0.953125 -0.015625 "/></g></g></g></svg>